<mxfile host="app.diagrams.net" modified="2022-01-24T22:06:03.739Z" agent="5.0 (Macintosh; Intel Mac OS X 10_15_7) AppleWebKit/537.36 (KHTML, like Gecko) Chrome/97.0.4692.71 Safari/537.36" etag="1DsNUZHprq71JWV0wAvI" version="16.4.5" type="github" pages="2">
  <diagram id="yJ8GVTbQ_9rg5WhjIU62" name="Macro_fluxo_de_dados">
    <mxGraphModel dx="1458" dy="798" grid="1" gridSize="10" guides="1" tooltips="1" connect="1" arrows="1" fold="1" page="1" pageScale="1" pageWidth="827" pageHeight="1169" math="0" shadow="0">
      <root>
        <mxCell id="0" />
        <mxCell id="1" parent="0" />
        <mxCell id="IdfGZtXqeyoMUQ6PpE0d-1" value="Objetivo: Trazer dados de API externa (com ou sem autorização) e disponibilizar em ambiente Data Warehouse para consumo das áreas de negócios" style="rounded=0;whiteSpace=wrap;html=1;labelBackgroundColor=none;labelBorderColor=none;fontSize=19;verticalAlign=top;labelPosition=center;verticalLabelPosition=middle;align=center;" vertex="1" parent="1">
          <mxGeometry x="20" y="10" width="830" height="990" as="geometry" />
        </mxCell>
        <mxCell id="IdfGZtXqeyoMUQ6PpE0d-4" style="edgeStyle=orthogonalEdgeStyle;rounded=0;orthogonalLoop=1;jettySize=auto;html=1;exitX=0.75;exitY=1;exitDx=0;exitDy=0;entryX=0.75;entryY=0;entryDx=0;entryDy=0;fontSize=22;fontColor=#FF0000;labelBackgroundColor=#FF0000;strokeColor=#FF0000;startArrow=openThin;startFill=0;" edge="1" parent="1" source="IdfGZtXqeyoMUQ6PpE0d-2" target="IdfGZtXqeyoMUQ6PpE0d-3">
          <mxGeometry relative="1" as="geometry" />
        </mxCell>
        <mxCell id="IdfGZtXqeyoMUQ6PpE0d-2" value="API Externa" style="rounded=0;whiteSpace=wrap;html=1;labelBackgroundColor=none;labelBorderColor=none;fontSize=22;" vertex="1" parent="1">
          <mxGeometry x="300" y="130" width="310" height="190" as="geometry" />
        </mxCell>
        <mxCell id="IdfGZtXqeyoMUQ6PpE0d-5" style="edgeStyle=orthogonalEdgeStyle;rounded=0;orthogonalLoop=1;jettySize=auto;html=1;exitX=0.25;exitY=0;exitDx=0;exitDy=0;entryX=0.25;entryY=1;entryDx=0;entryDy=0;fontSize=22;startArrow=classicThin;startFill=1;endArrow=classicThin;endFill=1;" edge="1" parent="1" source="IdfGZtXqeyoMUQ6PpE0d-3" target="IdfGZtXqeyoMUQ6PpE0d-2">
          <mxGeometry relative="1" as="geometry" />
        </mxCell>
        <mxCell id="IdfGZtXqeyoMUQ6PpE0d-10" style="edgeStyle=orthogonalEdgeStyle;rounded=0;orthogonalLoop=1;jettySize=auto;html=1;exitX=0.75;exitY=1;exitDx=0;exitDy=0;entryX=0.75;entryY=0;entryDx=0;entryDy=0;labelBackgroundColor=#FF0000;fontSize=22;fontColor=#FF0000;startArrow=none;startFill=0;strokeColor=#FF0000;" edge="1" parent="1" source="IdfGZtXqeyoMUQ6PpE0d-3" target="IdfGZtXqeyoMUQ6PpE0d-6">
          <mxGeometry relative="1" as="geometry" />
        </mxCell>
        <mxCell id="IdfGZtXqeyoMUQ6PpE0d-11" style="edgeStyle=orthogonalEdgeStyle;rounded=0;orthogonalLoop=1;jettySize=auto;html=1;exitX=0.25;exitY=1;exitDx=0;exitDy=0;entryX=0.25;entryY=0;entryDx=0;entryDy=0;labelBackgroundColor=default;fontSize=22;fontColor=default;startArrow=none;startFill=0;strokeColor=default;" edge="1" parent="1" source="IdfGZtXqeyoMUQ6PpE0d-3" target="IdfGZtXqeyoMUQ6PpE0d-6">
          <mxGeometry relative="1" as="geometry" />
        </mxCell>
        <mxCell id="IdfGZtXqeyoMUQ6PpE0d-3" value="Solução" style="rounded=0;whiteSpace=wrap;html=1;labelBackgroundColor=none;labelBorderColor=none;fontSize=22;" vertex="1" parent="1">
          <mxGeometry x="300" y="410" width="310" height="190" as="geometry" />
        </mxCell>
        <mxCell id="IdfGZtXqeyoMUQ6PpE0d-6" value="Data Warehouse" style="rounded=0;whiteSpace=wrap;html=1;labelBackgroundColor=none;labelBorderColor=none;fontSize=22;" vertex="1" parent="1">
          <mxGeometry x="300" y="700" width="310" height="190" as="geometry" />
        </mxCell>
      </root>
    </mxGraphModel>
  </diagram>
  <diagram id="PVvwduW8LqJ1lEAxEfE4" name="Solução_AWS ">
    <mxGraphModel dx="2591" dy="2587" grid="1" gridSize="10" guides="1" tooltips="1" connect="1" arrows="1" fold="1" page="1" pageScale="1" pageWidth="827" pageHeight="1169" math="0" shadow="0">
      <root>
        <mxCell id="J0JZgje_QnxCTfkJuF6g-0" />
        <mxCell id="J0JZgje_QnxCTfkJuF6g-1" parent="J0JZgje_QnxCTfkJuF6g-0" />
        <mxCell id="UPEO-3RXI1AXwhg55Y5w-0" value="" style="rounded=0;whiteSpace=wrap;html=1;labelBackgroundColor=none;labelBorderColor=none;fontSize=16;fontColor=#1A1A1A;" vertex="1" parent="J0JZgje_QnxCTfkJuF6g-1">
          <mxGeometry x="80" y="-330" width="2100" height="960" as="geometry" />
        </mxCell>
        <mxCell id="JuR0OPrt6wvXzpf4ztp9-44" value="Situação 1: API dinâmica" style="rounded=0;whiteSpace=wrap;html=1;labelBackgroundColor=none;labelBorderColor=none;align=right;verticalAlign=top;fontSize=19;" vertex="1" parent="J0JZgje_QnxCTfkJuF6g-1">
          <mxGeometry x="90" y="10" width="1020" height="610" as="geometry" />
        </mxCell>
        <mxCell id="JuR0OPrt6wvXzpf4ztp9-11" value="Configurado na mesma VPC" style="rounded=0;whiteSpace=wrap;html=1;align=right;verticalAlign=top;" vertex="1" parent="J0JZgje_QnxCTfkJuF6g-1">
          <mxGeometry x="480" y="140" width="590" height="300" as="geometry" />
        </mxCell>
        <mxCell id="JuR0OPrt6wvXzpf4ztp9-10" style="edgeStyle=orthogonalEdgeStyle;rounded=0;orthogonalLoop=1;jettySize=auto;html=1;" edge="1" parent="J0JZgje_QnxCTfkJuF6g-1" source="JuR0OPrt6wvXzpf4ztp9-1" target="JuR0OPrt6wvXzpf4ztp9-9">
          <mxGeometry relative="1" as="geometry" />
        </mxCell>
        <mxCell id="JuR0OPrt6wvXzpf4ztp9-14" style="edgeStyle=orthogonalEdgeStyle;rounded=0;orthogonalLoop=1;jettySize=auto;html=1;entryX=0.5;entryY=0;entryDx=0;entryDy=0;entryPerimeter=0;" edge="1" parent="J0JZgje_QnxCTfkJuF6g-1" source="JuR0OPrt6wvXzpf4ztp9-1" target="JuR0OPrt6wvXzpf4ztp9-2">
          <mxGeometry relative="1" as="geometry" />
        </mxCell>
        <mxCell id="JuR0OPrt6wvXzpf4ztp9-22" style="edgeStyle=orthogonalEdgeStyle;rounded=0;orthogonalLoop=1;jettySize=auto;html=1;" edge="1" parent="J0JZgje_QnxCTfkJuF6g-1" source="JuR0OPrt6wvXzpf4ztp9-1" target="JuR0OPrt6wvXzpf4ztp9-21">
          <mxGeometry relative="1" as="geometry" />
        </mxCell>
        <mxCell id="JuR0OPrt6wvXzpf4ztp9-1" value="AWS Glue" style="sketch=0;outlineConnect=0;fontColor=#232F3E;gradientColor=none;strokeColor=#ffffff;fillColor=#232F3E;dashed=0;verticalLabelPosition=middle;verticalAlign=bottom;align=center;html=1;whiteSpace=wrap;fontSize=10;fontStyle=1;spacing=3;shape=mxgraph.aws4.productIcon;prIcon=mxgraph.aws4.glue;" vertex="1" parent="J0JZgje_QnxCTfkJuF6g-1">
          <mxGeometry x="540" y="160" width="90" height="100" as="geometry" />
        </mxCell>
        <mxCell id="JuR0OPrt6wvXzpf4ztp9-5" style="edgeStyle=orthogonalEdgeStyle;rounded=0;orthogonalLoop=1;jettySize=auto;html=1;startArrow=none;" edge="1" parent="J0JZgje_QnxCTfkJuF6g-1" target="JuR0OPrt6wvXzpf4ztp9-1">
          <mxGeometry relative="1" as="geometry">
            <mxPoint x="250" y="370" as="sourcePoint" />
            <mxPoint x="380" y="200" as="targetPoint" />
            <Array as="points">
              <mxPoint x="260" y="230" />
            </Array>
          </mxGeometry>
        </mxCell>
        <mxCell id="JuR0OPrt6wvXzpf4ztp9-2" value="" style="sketch=0;html=1;dashed=0;whitespace=wrap;fillColor=#2875E2;strokeColor=#ffffff;points=[[0.005,0.63,0],[0.1,0.2,0],[0.9,0.2,0],[0.5,0,0],[0.995,0.63,0],[0.72,0.99,0],[0.5,1,0],[0.28,0.99,0]];shape=mxgraph.kubernetes.icon;prIcon=api" vertex="1" parent="J0JZgje_QnxCTfkJuF6g-1">
          <mxGeometry x="116.46" y="310" width="127.08" height="110" as="geometry" />
        </mxCell>
        <mxCell id="JuR0OPrt6wvXzpf4ztp9-4" style="edgeStyle=orthogonalEdgeStyle;rounded=0;orthogonalLoop=1;jettySize=auto;html=1;" edge="1" parent="J0JZgje_QnxCTfkJuF6g-1" source="JuR0OPrt6wvXzpf4ztp9-3" target="JuR0OPrt6wvXzpf4ztp9-2">
          <mxGeometry relative="1" as="geometry" />
        </mxCell>
        <mxCell id="JuR0OPrt6wvXzpf4ztp9-3" value="NFe.json" style="shape=cylinder3;whiteSpace=wrap;html=1;boundedLbl=1;backgroundOutline=1;size=15;" vertex="1" parent="J0JZgje_QnxCTfkJuF6g-1">
          <mxGeometry x="150" y="510" width="60" height="70" as="geometry" />
        </mxCell>
        <mxCell id="JuR0OPrt6wvXzpf4ztp9-6" value="json path;&amp;nbsp;&lt;br&gt;direcionar o glue para ler e converter para o schema relacional" style="whiteSpace=wrap;html=1;aspect=fixed;labelBackgroundColor=none;labelBorderColor=none;" vertex="1" parent="J0JZgje_QnxCTfkJuF6g-1">
          <mxGeometry x="670" y="220" width="130" height="130" as="geometry" />
        </mxCell>
        <mxCell id="JuR0OPrt6wvXzpf4ztp9-18" style="edgeStyle=orthogonalEdgeStyle;rounded=0;orthogonalLoop=1;jettySize=auto;html=1;" edge="1" parent="J0JZgje_QnxCTfkJuF6g-1" source="JuR0OPrt6wvXzpf4ztp9-9" target="JuR0OPrt6wvXzpf4ztp9-1">
          <mxGeometry relative="1" as="geometry" />
        </mxCell>
        <mxCell id="JuR0OPrt6wvXzpf4ztp9-9" value="Amazon Redshift" style="sketch=0;outlineConnect=0;fontColor=#232F3E;gradientColor=none;strokeColor=#ffffff;fillColor=#232F3E;dashed=0;verticalLabelPosition=middle;verticalAlign=bottom;align=center;html=1;whiteSpace=wrap;fontSize=10;fontStyle=1;spacing=3;shape=mxgraph.aws4.productIcon;prIcon=mxgraph.aws4.redshift;" vertex="1" parent="J0JZgje_QnxCTfkJuF6g-1">
          <mxGeometry x="850" y="310" width="80" height="110" as="geometry" />
        </mxCell>
        <mxCell id="JuR0OPrt6wvXzpf4ztp9-21" value="" style="shape=image;verticalLabelPosition=bottom;labelBackgroundColor=default;verticalAlign=top;aspect=fixed;imageAspect=0;image=data:image/png,iVBORw0KGgoAAAANSUhEUgAAAMQAAACECAYAAADP/oQHAAAK3mlDQ1BJQ0MgUHJvZmlsZQAASImVlwdUU1kagO976SEhQEIEpITeBOkEkBJ6AOldVEISSCghJgQFOzI4gqOCiAiWoQyKKDg6AjIWxIIVxYZ9QAYFZR0s2EDZByxhZvbs7tn/nZv7vT///cs9957zPwDIQRyxOB1WAiBDlCUJ9/NkxMbFM3DPAQTUAABGAOZwpWJWaGgQ8gZm5r/Kh3uINSK3LSZ9/fv//1VUeHwpFwAoAeEknpSbgXA7Ml5zxZIsAFBHEL3+8izxJN9BmCZBEkR4cJJTpnl8kpOmGK00ZRMZ7oWwAQB4EocjSQGAZIXoGdncFMQPKRRhKxFPKEJ4HcJuXAGHhzASF8zLyMic5GGETRB7MQBkGsLMpD/5TPmL/yS5fw4nRc7TdU0J3lsoFadzcv7PrfnfkpEum4lhhAySQOIfjsx0ZP/up2UGylmUFBwyw0LelP0UC2T+UTPMlXrFzzCP4x0oX5seHDTDyUJfttxPFjtyhvlSn4gZlmSGy2MlS7xYM8yRzMaVpUXJ9QI+W+4/VxAZM8PZwujgGZamRQTO2njJ9RJZuDx/vsjPczaur7z2DOmf6hWy5WuzBJH+8to5s/nzRaxZn9JYeW48vrfPrE2U3F6c5SmPJU4Pldvz0/3keml2hHxtFnI4Z9eGyvcwlRMQOsMgCPiAYMAAkcAGeYTAAlgD5FRl8VdkTRbjlSnOkQhTBFkMFnLj+Ay2iGs5j2FjZWMDwOT9nT4S78Kn7iVEPz2ry6xFjvIH5M4Uz+qSSgFoKQBA7eGszmAvAJR8AJo7uDJJ9rQOPfmDAURAATSgDrSBPjBBMrMBDsAFeCAZB4AQJOM4sARwgQBkAAlYDlaB9aAAFIFtYAeoAPtADTgADoOjoAWcBGfBRXAV3AR3wSPQCwbAKzACPoAxCIJwEBmiQuqQDmQImUM2EBNyg3ygICgcioMSoRRIBMmgVdAGqAgqgSqgKqge+hk6AZ2FLkPd0AOoDxqC3kJfYBRMgmmwFmwEz4eZMAsOhCPhxXAKvAzOhfPhLXA5XA0fgpvhs/BV+C7cC7+CR1EApYCio3RRFigmygsVgopHJaMkqDWoQlQZqhrViGpDdaJuo3pRw6jPaCyaimagLdAuaH90FJqLXoZeg96MrkAfQDejz6Nvo/vQI+hvGDJGE2OOccawMbGYFMxyTAGmDFOHOY65gLmLGcB8wGKxdKwx1hHrj43DpmJXYjdj92CbsO3Ybmw/dhSHw6njzHGuuBAcB5eFK8Dtwh3CncHdwg3gPuEV8Dp4G7wvPh4vwufhy/AH8afxt/Av8GMEJYIhwZkQQuARcghbCbWENsINwgBhjKhMNCa6EiOJqcT1xHJiI/EC8THxnYKCgp6Ck0KYglBhnUK5whGFSwp9Cp9JKiQzkhcpgSQjbSHtJ7WTHpDekclkI7IHOZ6cRd5CriefIz8lf1KkKloqshV5imsVKxWbFW8pvqYQKIYUFmUJJZdSRjlGuUEZViIoGSl5KXGU1ihVKp1Q6lEaVaYqWyuHKGcob1Y+qHxZeVAFp2Kk4qPCU8lXqVE5p9JPRVH1qV5ULnUDtZZ6gTpAw9KMaWxaKq2IdpjWRRtRVVG1U41WXaFaqXpKtZeOohvR2fR0+lb6Ufo9+pc5WnNYc/hzNs1pnHNrzke1uWoeany1QrUmtbtqX9QZ6j7qaerF6i3qTzTQGmYaYRrLNfZqXNAYnkub6zKXO7dw7tG5DzVhTTPNcM2VmjWa1zRHtbS1/LTEWru0zmkNa9O1PbRTtUu1T2sP6VB13HSEOqU6Z3ReMlQZLEY6o5xxnjGiq6nrryvTrdLt0h3TM9aL0svTa9J7ok/UZ+on65fqd+iPGOgYLDRYZdBg8NCQYMg0FBjuNOw0/GhkbBRjtNGoxWjQWM2YbZxr3GD82IRs4m6yzKTa5I4p1pRpmma6x/SmGWxmbyYwqzS7YQ6bO5gLzfeYd8/DzHOaJ5pXPa/HgmTBssi2aLDos6RbBlnmWbZYvp5vMD9+fvH8zvnfrOyt0q1qrR5Zq1gHWOdZt1m/tTGz4dpU2tyxJdv62q61bbV9Y2dux7fba3ffnmq/0H6jfYf9VwdHB4lDo8OQo4FjouNuxx4mjRnK3My85IRx8nRa63TS6bOzg3OW81HnP1wsXNJcDroMLjBewF9Qu6DfVc+V41rl2uvGcEt0+9Gt113XneNe7f7MQ9+D51Hn8YJlykplHWK99rTylHge9/zo5ey12qvdG+Xt513o3eWj4hPlU+Hz1FfPN8W3wXfEz95vpV+7P8Y/0L/Yv4etxeay69kjAY4BqwPOB5ICIwIrAp8FmQVJgtoWwgsDFm5f+DjYMFgU3BICQtgh20OehBqHLgv9NQwbFhpWGfY83Dp8VXhnBDViacTBiA+RnpFbIx9FmUTJojqiKdEJ0fXRH2O8Y0piemPnx66OvRqnESeMa43HxUfH18WPLvJZtGPRQIJ9QkHCvcXGi1csvrxEY0n6klNLKUs5S48lYhJjEg8mjnNCONWc0SR20u6kEa4Xdyf3Fc+DV8ob4rvyS/gvkl2TS5IHU1xTtqcMCdwFZYJhoZewQvgm1T91X+rHtJC0/WkT6THpTRn4jMSMEyIVUZrofKZ25orMbrG5uEDcu8x52Y5lI5JASZ0Uki6WtmbRkEbpmsxE9p2sL9stuzL70/Lo5cdWKK8QrbiWY5azKedFrm/uTyvRK7krO1bprlq/qm81a3XVGmhN0pqOtfpr89cOrPNbd2A9cX3a+ut5Vnklee83xGxoy9fKX5ff/53fdw0FigWSgp6NLhv3fY/+Xvh91ybbTbs2fSvkFV4psioqKxrfzN185QfrH8p/mNiSvKVrq8PWvduw20Tb7hW7Fx8oUS7JLenfvnB7cymjtLD0/Y6lOy6X2ZXt20ncKdvZWx5U3rrLYNe2XeMVgoq7lZ6VTbs1d2/a/XEPb8+tvR57G/dp7Sva9+VH4Y/3q/yqmquNqstqsDXZNc9ro2s7f2L+VF+nUVdU93W/aH/vgfAD5+sd6+sPah7c2gA3yBqGDiUcunnY+3Bro0VjVRO9qegIOCI78vLnxJ/vHQ082nGMeazxF8Nfdh+nHi9shppzmkdaBC29rXGt3ScCTnS0ubQd/9Xy1/0ndU9WnlI9tfU08XT+6YkzuWdG28Xtw2dTzvZ3LO14dC723J3zYee7LgReuHTR9+K5TlbnmUuul05edr584grzSstVh6vN1+yvHb9uf/14l0NX8w3HG603nW62dS/oPn3L/dbZ2963L95h37l6N/hu972oe/d7Enp67/PuDz5If/DmYfbDsUfrHmMeFz5RelL2VPNp9W+mvzX1OvSe6vPuu/Ys4tmjfm7/q9+lv48P5D8nPy97ofOiftBm8OSQ79DNl4teDrwSvxobLviH8j92vzZ5/csfHn9cG4kdGXgjeTPxdvM79Xf739u97xgNHX36IePD2MfCT+qfDnxmfu78EvPlxdjycdx4+VfTr23fAr89nsiYmBBzJJypVgCFDDg5GYC3+5H+OA4A6k0AiIum++spgaa/CaYI/Cee7sGnxAGAmh4AIlcCEHQdgF0VSEuL+Kcg3wWhFETvAmBbW/n4l0iTbW2mfZHckdbkycTEOxMAcMUAfC2emBirmZj4WoMk+wiA9pzpvn5SrBoB4NRP0kNYfRz8TaZ7/j/V+PcZTGZgB/4+/xOachszcEA+BQAAADhlWElmTU0AKgAAAAgAAYdpAAQAAAABAAAAGgAAAAAAAqACAAQAAAABAAAAxKADAAQAAAABAAAAhAAAAACwiMK2AAAbcUlEQVR4Ae1dB3xVRdY/CekhjRB6C0WkiajoUkTE3gviZ8GVtaxrQ107oNh1ddeCrgWwoYJ8qBQVrNgVUVARpNdQAoQeAgkkd8//hLnc3FfybsiLvJdzfr/37tyZM+0/c6acKTfGYiIlRUAREARiFQdFQBHYj4AKxH4s1KQIkAqEVgJFwIGACoQDDDUqAioQWgcUAQcCKhAOMNSoCKhAaB1QBBwIxDnMUWWc1ebqqMrPwZCZI5eOOhiSEdY0aA8RVng18EhDQAUi0kpM0xtWBFQgwgqvBh5pCKhARFqJaXrDioAKRFjh1cAjDQEViEgrMU1vWBFQgQgrvBp4pCGgAhFpJabpDSsCKhBhhVcDjzQEVCAircQ0vWFFQAUirPBq4JGGgApEpJWYpjesCKhAhBVeDTzSEFCBiLQS0/SGFQEViLDCq4FHGgIqEJFWYpresCIQtQeEwopaJYHHN8ykrNOOpNSuuZTcoTnF1Uuj2MR4KttdQiVrN9Hupfm0/Zt58tu7ubCS0NS5JhFQgahGtFO6tKKmt51HaT0PpZhY3863Tt0kiq+fTqmH5VL2eT2orGQvbflgJuWP+ph2L1pbjSnRoKqKgApEVZFz+ItNTqTmwy+i7At6UUxMjLiUFu6mHTMWUNEfebQnfwuVFe+hOnWTKaFZNtXt1oZSu7Wm2IQ4yj6/J9U75y+0fvQntPapyWTt2esIWY01jYAKxAEintgyh9q8eD0lH9JUQtq1ZB2te2YKbf3016CVu056CuVc0ocaXH4CxTfIpEbXnErpfTrRkr89Q3s2bjvAVKn3qiIQE62XHdfEJQOJLXLokHG3U0KjLLJKy6SFzx/5ERGbQ6XY1ERqekd/yrm0r/QuxWs20eKB/6HiVRtDDaLG+PSSgRqDOvIiQgvf7o1/ijCUFhXT4kFPUf4LUz0JA3JdtrOY8oaPpRX/HC1zisSm2dTu9Vt4Il438kCJghT7zvyiIFM1kYVWjw+ixGb1ZW6w5MoRtOP7BQcU7eYpM2nZdS9IT4OeJ/dpvkZn33zkgAJWz54QUIHwBFc5c+Yp3SjzpG7ysvrh8VQ4c1EVQvH1su2LOZT30HhxSO/VkecYx/kyqU1YEdBJtVd4udVuent/8bX9u/m08a2vvIYQlH/jmOmUcVxnyujbhZqwCnfzlB+J6sRS/f87liAkCU2yqLSwmIrmLKeCd77j54qg4amjNwRUILzhRRnHd6Gk3Ibia/WjEzz6Do191X1jqfOnD1Icz1Nyn7qaUo9oTXEZqRU8p3ZpKRNxCEXe8HG86FdcwV1fqoaACoRH3OoP6C0+dvy4kHbNz/PoOzT2krwCKpjwnQyZIICgvVt30pYPfyKodeOy6spKeHK7JlSf1z6g5cI8xtpbGloEyhUQARWIgND4ceDhUlrPDuKwaeIMPwzVZ7XxzS/sOcT2b/+gZTeNpFIWCkPrRrxPjQefRU34l967IzW69jRa9+wHxlmfVURAJ9UegEvu0IxXm5PERyH3EOGkXQvX0Fpe4Cv4/29o6TXPVxAGiZe/lYkFwIIJ38pro2tPpzqZFYdV4UxftIatAuGhZBNbNBBubMuoiYUz9AIr7x4TdH6w5on3RPWLzYPZ5xzjITfK6g8BFQh/qASwi89JF5c9G7YG4Kh5672bdhCGVCAznKv5VERPjCoQHsoyLiNFuA+2yevOX5ZJulJ502DdYw4RNa2HbCmrAwGdVDvACGRM+0t7nrSeTmm9yifUsSmJgVj/FPviVRsk3vjsNGo/9nbaU7Bd5h7rR31CpduL/pQ0RWqk2kMEKbmY+Dhq9cTf6JC3bhNNDrZ27+EhyoZXPwviq+adtk3/nTa8MV1UsogdZy4aX3cGdf7qUarH5y6UQkdAd7sGwAq7ULHJDmcXQFh3wCR3x4+8TYM1PAcrJfD+qpyL+8iiXZ20ZEnmBl79zrt/3AEnuTbsdlWBCFBN2oy8gTJP6EpWWRmtfmRCjfUKcdnpHO9hcoAIlbtOahKV7Sqh4tUFsk1j2/Q5VLJuc4BU77eOb5BBLR8bJNtAYLuOd+Ku/ffE/QxVMKlAVAG0g8XLgZyHyD6/Bw+VrpCsrLznTSoYW737lfxhlMSrzk1uPls2Dcbw3qVAxOdXaPtXc2nt01Oo6PcVgdjK7Tmc3H9fQfXOLlfHLrrsSd6VOz+4nyCutUEgdFLtrgA8T2hy63liu+WjWTUiDA2vOpk3DJ5PMXF1JF5osQp/WSrnrEt37CIM35JaN6a63dvJsVNs/EvnDYCYy6D3CjiE44NKK+4aQym87ykptxE1u7M/zT/nIXeO9d2BgAqEAwwYsdNUTsBxS7zm8QMbYriC9n1l4Ws94u+UdfpR4oYJe/7zH9Km937wqx2CYGSd3l22ayQ0qUcNrziJEls1oOWDR/Gwyv/mPqu4hPIeHE/tXrmJUjq3lF/R3JW+aVEbQSBw31xLAUrjfUGgnbOWUvHK9WFFocWDA21h2PLRbJrbbwhteO1zv8KAhOB03SbeqjG331AqGP+NpC2zX1fKfSb4N7kxxDKLiehZlAIjoALhwialY3OxKZy9xOVSva/1oQniHwgq02XXv0BlvCXESdjVGs87Wd0n53Azx8ohY3geMVnYMflvyJcUBKPCn8vzk8L7sZQCI6BDJhc2uCoGtJcXt8JFOI+N8TwIF5bl3f+2HVVMYgI1+vvJVP/C3nwYKFvsMRza+tlvtHbEFCpetr/Xwu7WRD6bkc3X2DS56WzeHv4zlbA2yh8V85ZyUHxOpj9ntduHgPYQ7qqwT8ODWzTCRQ0GnUB10lLkUoGVQ9+wJ8VQuXaYPJS1TefYwoA04N6nrDO7E85auynvvnG0l1ejsbmv4dUnu53td9waCIpNirft1OCLgPYQLkzK+AYNUCzr/8NF2f17StCYD5TwtTNCPMFuO/oGwqGfvVsK+UqbSYQVaKhZ03sfyqvPGbT9y7k+ScLWDGib0ENAvbqaz2Rbe3wPCsXE79NghVHQfRIXgRbaQ7gKrXhl+b6g5LaNXS7V85rUupHc1oHQtkz92Q603rl/kSsuoWZd0P8xOauNBTjc+rfpnR8o/0W+7ykA4SQdCEdOU7u29stljr3iblmlwAioQLiw2fnrcrFJ4wP97smsi7VKr8n7Ju242nLHT4vtMOrxkAi0nlt7r9otXJ5cwoIDSulUrhSQl31/6B3M1vCdeimBExofswqEC5Ktn/EVlLxdAztHcYN3dROurQSVrOXtF47hS1KbRmJf+FPVrrQpztso/uMbslbKRfXO7SGXFGD4tfWTX1yu+upEQAXCiQabMUTZ+vFsscVN3tD6VCfZY3m++dtJVmn5hsHYhKpNeq194ZnwTdhxLNjIB2jb579R8YryIaFx12dFBFQgKuIhb2uenCTHMhNbNqCWj1zmh6PqVuZ8gvuqyl0LV0ug6ftu2fAaA9YsQKXb9l9EAPVu29E3ynZwaJnCdW2O17QezPwqEH5KB7p+nFUGZfNkF7tG3S2vH28hWe1eli988TkZfOt3hu1n86QZYs65qI+cvbAdQjDEJvFepzblSoDdy8vXKVIPb02HThwqE3UMlXA2W3uHysFUgQiAEVSZOEcAqj+gFx06aZjcpnegE+2iOSul90G4GScejocQxvbbvp4rG/yw7dsLpR/bQdYh4Kdw30Q9oXEWJfE+J2wUhDDIDYBeAq2lvLoOEaTgcagG32rAQlnKoc2o7cuDpTLLviAPZ4R2/LBAtlogKqw6b/vyd8o65Qi5d6lg3Nf2wtyyG1+iBgP7UsHbbOeBcgYeL9zYnrFnwzYxb5k2izbytnVcU6PXXYYOpgpEJVjlPz+VdvAdrk3vvoDSuh8iLXFic98V42DB7FpS8XNZG17/XAQihb8/h7MXm979XrxjL1Ow9QZ/cWCzHi4qA9XhSxAwNzHfrVvFZzmUvCGgJ+Y84JXA327Ad+Tk9g1eWQ6VsBqNPUtOavPS9ZTJQ6bSnbtp4YDHCBeTeaWExvXo0MnDREVs/GJyvujS/8hqt7GrrmdtOCCkAlFdtcVjONAKdZhyD+9Zqkcl67fy7XzP8Qm40M8pJLZuSG1H3igXL+PitDWPv0vNhgzgvUoJLFzhEYraIBA6qfZYkauLHfuVlvIHUvaymjSBP+Pb/u07CCfncNNHUMLV+LxtvMN7Q0QYsOK9bPBLvNXjS1ry9+dkjpPcvhm1e/NWvdoyKJD+HbWH8I9LjdlihbrtqzcTPqUFwv6lze/P5I19c2jX4rVyRiI2OYGSeG8Vjo5mnXm0aI9MAiEEWHAzhPkELkjA7tcivp18EX+vznlJsuGryrM29BAqEFWpGdXsR85H3HVB+Wd9g1ww4C/awtlL5ft2OE1nKP3YToQ5SnULRW0QCB0ymVr0Jz6xeo0TcPNOGsZapmm0e+k6v6nBfqUNr02neafcS6vufUt46h7Rhtq9dotcRGA8YQK/9NrnZfgETdYh/HFICJ1S5QhoD1E5Rn8KBy4ZS2jO9zLxtZm4lwmbATHvcBI+5dvigUvFym9P0bcztXn+uvKeYt6q8uHTAVxtqT2EE3011ygCOBex6488wmJbEVdmtzAgMZhIB+0p+EARvmxaxhv/Ujq14J7k5son7TWay4MvMh0yHXxl4ilFlQkFVsXlc7+8hSO1ay6vjpdfbOApklrErAIRBYVdqVDw53437ds8mN6ncxTkOHxZUIEIH7Y1GnJlQmESE+yaTMNTm5+VrALVZmgiL+8QChAm2tA+YbFv/aiP+XY/vqqGt7GDdsxYKE/984+ACoR/XCLW1ghF8/svoZSOLeQ71yYzUOfiUjSlwAioQATGJmJdIBRYs8BneyEUZbyBcOunv8qhJ+cCXsRmMIwJV4EII7h/ZtDbv55H+Cl5Q0An1d7wUu4oR0AFIsoLWLPnDQEVCG94KXeUI6ACEeUFrNnzhoAKhDe8lDvKEVCBiPIC1ux5Q0AFwhteyh3lCKhARHkBa/a8IaAC4Q0v5Y5yBFQgoryANXveEFCB8IaXckc5AioQUV7Amj1vCKhAeMNLuaMcARWIKC9gzZ43BFQgvOGl3FGOgApElBewZs8bAlF7UZk3GJRbEShHQHsIrQmKgAMBFQgHGGpUBFQgtA4oAg4EVCAcYKhREVCB0DqgCDgQUIFwgKFGRUAFQuuAIuBAQAXCAYYaFQEVCK0DioADARUIBxhqVARUILQOKAIOBFQgHGDUlHHu3Ln0yCOP0N69e2sqSp94du7cSSNGjKC8vDwft0ixCAeOngTi+++/pyFDhtCiRYsiBbMaTycq2ieffEKPPvoo3XDDDfTYY4/RzJkzK6Rj9uzZNHToUCou3v9t6QoMNfBSUFBAN910E82bV35D+Jw5c6Rs169f7zf2SZMm0UMPPeTXDZYTJkygZ555JqB7OBzCgqPlgXr16mVxxqzrrrvOg6/aw/rHH39Y7du3F4waNGhgHXPMMVZKSoq8n3zyydbOop0Cxuuvvy52hYWFfxo4K1askDRMmzZN0sBCK+8vv/Ky3zR17NhR3FmA/Lo3a9bMOvPMM/26BbP86aefrJdf9h9nMH9wCweOIfcQixcvpu+++464oOmVV16hol1F4RD6iA1z5cqV1LVrV9q+fTv9+OOPhJZ2xowZtGXLFhozZozYrVm95qDN3xFHHEFZWVk09cOpPmlcu3YtsbCL/WeffebjvmDBAlq9ejWdffbZPm6VWXz00Ud0yy23VMZWY+4hC8T48eMpLS2N8Ny9ezdNmzotpERiCAF+N8G+sjF0WVkZbdq0ibgldXuv0jsqJ8IMhXbt2uU33YH8Pvzww5IfNBpHH320zZaQkECXXXYZ5efnU7t27Wz7ygxe0lpZWMYdQ7RADVmdOnVowIABNGXKFJ+h3DfffCNBtGrVit5//30TnP2cPr38M13cC9p2xoD4NmzYEDLuxp/zWVJSQps3bybuFJzWPmavZeYTACwq65bgXlpaarVo0cK68cYbbfNZZ53l1+u4ceOs+Ph4i1tM69RTT7ViYmKkq2WwrW3btlnz58+3jj32WLHjQrAuv/xyyz10QHd+xRVX2MMNJLNbt24Wt7gV4mzevLmVmppa4Zeenm6tW7fO5uOW2ho4cKDFrZ/EmZiYaJ1xxhnWkiVLbB4YTLq5pbO4pbNiY2Ml7ccdd5y1bNmyCrzul3X56yTsa6+91u3k9z1QVx9qWjGsAXYoFyfxBFnSzK2409rCMKdPnz7ihvI44YQTLJ7nSJrNkAkeeJ4gdl988UUF/1dffbXVs2dP68EHH5QwUI5OAp5dunRxWlmvvvqqlBnKDj/UiTvuuMPixlH4uFeRcgPOcDfleO6559rh/P7771bfvn0lTvDk5ORYTz31lJ1vgyPC8lpmdiQuQ0gCwS2EJBpP0P333y/vqAhuMomsX7++hcwB+Kefflr4+/XrJ5UcwvTxxx9bPAkTewDlJJ6MWocffriAysMPa+LEiVZubq4Awj2LzYrCfOedd+zfUUcdZcXFxVncugoPt0wWxvIQhpdeeslCQb/44otWvXr1LG65LVQgQybd4Icgc0so4WZkZFidO3e2uGcxrD7Pr7/+WvIxdepUHzd/FiYuZ0PgJa0vvPCCxMc9bIXg3fMCOK5atcpCI4A5wLvvvmuNHTtWKrepqE6BQEWHwNx9990Vwm3cuLH1wAMPWCgL+ONexHbHvAiVevjw4bbdmjVrJByetFsQTlbGWLfeeqv4ffbZZ4WvqKhIML744ouFF3jjhzkFCHmB0EPQ3pv4nvXpp59agwcPljB++OEH4TE4In9ey0wC8PMXkkD84x//sACKaZEgkQDGZM4ZrknkoEGDLGeBXXrppeLHbY/WG8LjJFRoE5exR2VDnCgUf/TLL7+I+5NPPmk7Q9BQwKwVs+1gMOmH4Bky6UZ69uzZY6ztidtvv/1m27kNr732msTNakC3k993E5dTILyk1YtA3H777YIBBMMQKiNaVODpFAi4n3baaSI8htdgBaFHeaIHvv76642zVHiEYyopHNB4bNmy2eYxhiOPPFJ6Z/OOJ3odhOmmK6+8UhotHjJXcGLNkrV161axMzhWpcwqBOp4qVQg0CJDAlnd6vBmWWiN0Yq7ySTS3a0+99xzUgBu+//+979ib7pSd3jmHcMWAP/BBx8YK/uJCgywMaxyVmYMqS655BKbz2lA78VjetsqULpNhXBXHNsjG/71r39J2jDcCoVMXE6B8JJWLwKBFvaCCy7wSZbB050vEzZaaNCoUaOkpebxubyjQUPjaHrMO++800Iv6mz8hNHP31VXXSVl5HQKJBAYoqMhDkYGR3edCqXMAoVb6aSaW2aZZPEwR56YmOHHXR39+uuvBP21P8IkzUkMmry67TFRB2Hi5KSff/6ZbrvtNmJVHrHwyRPunBEnm5hZqGjWrFk0evRo4iGT2CGNWHTiCuHDD4tOnToRzyN8Jnvu9GVklqebW1W/4cCSVY7iholzVaiqaQ0lroULFxIPl3xYeZjjYweLU045Rew///xzeUKrBLukpCR55x6EeI5mr19gko3JuBs34MUVlnhkQDx/IW6sRCHjr/wkYMcf8OAejdq2beuwDWx0xx1KmQUKzT8qDm4eDshbjx49BBQAgx+PCcWeJ6MObu9GHtL4eIImq3v37vTVV19R7969idc9iLtQHz5YLF++XASHhxwE1aEh7inE6AbLuEPb5C9u426eMeSbPuNmnrm5rcQI1XRVqLrS6o4beUTYoeTT+OW5mggQGkIetopW6aSTTjLOdPzxx4uZx/RSaaGOPf2M0213GHbs2CF8PBmnzMxMuuiii2QR0Fk+FTy4XkzjGKjsXOw+r6GUmY+nfRZBv1ONluDDDz+km2++mS68cIBPGMOG3SOtMnd7dsvsw1QFi7vuuotOPPFEgo7agAI9txFCEyRaGx7PEnfhdO+99xpredatW1f06tx9VrA3L7BHyxmopTR8oTw7dOhAUK9ipRaF75W8pjU5OVmi4KECsYLAjs7d+iJv6L3QE7oJwhKIzj//fOJhoKydoKVnTZvNypoeQuPIQ1eJG8LW7/h+tjsMqDNYnUeDht7BEE+YCbsd3ATBcxJGDfjxsM5pXSPmoD0EluNBaKF79Ojp87vmmmsIWwBYe1NtiUXrwONXQktlhAGBY5HLTeideAwsQslqO7czQS+ORTH3UAbDCNZcUf/+/X38VMUiMzOL7rnnHkkja9R8gkCeRo4cKYtXPo77LLyktUmTJuKLFQl2cOgJ0JC4CZWZNXHEE1HbCRXwvvuG2+9uA4ZFCG/YsGFSMQ877LAKLFiAQ5m/+eabgrEZDhsmU5FbtmxprKTXwFYLN/FKPmFNCusMToIgYQEYC51OYuWGLHo67arVzK1KQMKEDJPnQIRJIfTLf/3rZTaLmeg4J4xwfOONNyxOuM+ag7HnjNthYMsDwmVARKsElR784gfVHAiTcEzmMBmFCtf5M+pgaH24BROVLdYZsD3hVdaPQ+0K9apTExIo3SxMEi9UlsEIEzvo6pFGaHCg5oV68vHHH5f4YW/WPvzF5SWt0BJBlYxtIt9++61oeqAdgvoT8TgnytD+wI6HOhY0RVCBQkXJw14fXpM/FgaLW2hx5x7PWNtPnq+JG8KFUsRNKAu4cYMjcU6ePNlek3ArYlCe4IWKFipX+AUhX7DnRU5R3SPdLPBSnl9++aXw+MMRDqGWmQTi+guoZTJaCGiHghHUY9yS21oGU8Gd6wXw/9Zbb0kGA9nzuNOOBot30BgBEPygcYB2CZWbu2PhgwCZCmD4zBNxGULhQQNl3LBOgYIyQmP4AqUb6wPwC114ZcQ9gejrzb4f+EN80LVDLWwoUFyhphXhYJGSV47tfEEgsJCFOE2lMvFhHYd7FXEDhhBYqKLBy8NSw1bhicU4uKNRchM0SmhQ4L506VK3s7xj3QJxgQflhAVY7nEsnkdU4Ifw8RBN+MB74YUX2u5oUKDRgj1+aASeeOKJSuualzKzI9tnCHqVJboydGmcMU6Pf0L3C60A+EAYm+4u3k0pyeXvxpdXe/jDcAzE6xTyxDaA5KTkoOkRRj9/8Ltxw0YZUzuHYoY1UPrgjnE0xu3BcDDhmCewww9px1jeScHiAl9laXWGlb8+XzAxw5ZgacWeJExyTVkF40Ua4Y75jT/CkAplb7RP/ngwVEQZZmdnE6vuhZ+FScxufgyZSvaUUIOcBj54cQWXbTRNmzatMIwOhmOwvLnjdr4HFQgno5oVgdqAQMWmqzbkWPOoCARBQAUiCDjqVPsQUIGofWWuOQ6CgApEEHDUqfYhoAJR+8pccxwEARWIIOCoU+1DQAWi9pW55jgIAioQQcBRp9qHgApE7StzzXEQBFQggoCjTrUPgf8BX7SMvpRjTNgAAAAASUVORK5CYII=;" vertex="1" parent="J0JZgje_QnxCTfkJuF6g-1">
          <mxGeometry x="518.1800000000001" y="20" width="133.63" height="90" as="geometry" />
        </mxCell>
        <mxCell id="JuR0OPrt6wvXzpf4ztp9-23" value="leitura On Demand" style="rounded=0;whiteSpace=wrap;html=1;labelBackgroundColor=none;labelBorderColor=none;" vertex="1" parent="J0JZgje_QnxCTfkJuF6g-1">
          <mxGeometry x="270" y="140" width="120" height="60" as="geometry" />
        </mxCell>
        <mxCell id="JuR0OPrt6wvXzpf4ztp9-40" value="criação do json path de acordo com o schema requerido no Redshift" style="rounded=0;whiteSpace=wrap;html=1;labelBackgroundColor=none;labelBorderColor=none;" vertex="1" parent="J0JZgje_QnxCTfkJuF6g-1">
          <mxGeometry x="940" y="320" width="120" height="60" as="geometry" />
        </mxCell>
        <mxCell id="JuR0OPrt6wvXzpf4ztp9-46" value="Situação 2: API estática" style="rounded=0;whiteSpace=wrap;html=1;labelBackgroundColor=none;labelBorderColor=none;align=right;verticalAlign=top;fontSize=19;" vertex="1" parent="J0JZgje_QnxCTfkJuF6g-1">
          <mxGeometry x="1150" y="10" width="1020" height="610" as="geometry" />
        </mxCell>
        <mxCell id="JuR0OPrt6wvXzpf4ztp9-47" value="Configurado na mesma VPC" style="rounded=0;whiteSpace=wrap;html=1;align=right;verticalAlign=top;" vertex="1" parent="J0JZgje_QnxCTfkJuF6g-1">
          <mxGeometry x="1540" y="140" width="590" height="300" as="geometry" />
        </mxCell>
        <mxCell id="JuR0OPrt6wvXzpf4ztp9-48" style="edgeStyle=orthogonalEdgeStyle;rounded=0;orthogonalLoop=1;jettySize=auto;html=1;" edge="1" parent="J0JZgje_QnxCTfkJuF6g-1" source="JuR0OPrt6wvXzpf4ztp9-51" target="JuR0OPrt6wvXzpf4ztp9-58">
          <mxGeometry relative="1" as="geometry" />
        </mxCell>
        <mxCell id="JuR0OPrt6wvXzpf4ztp9-49" style="edgeStyle=orthogonalEdgeStyle;rounded=0;orthogonalLoop=1;jettySize=auto;html=1;entryX=0.5;entryY=0;entryDx=0;entryDy=0;entryPerimeter=0;" edge="1" parent="J0JZgje_QnxCTfkJuF6g-1" source="JuR0OPrt6wvXzpf4ztp9-51" target="JuR0OPrt6wvXzpf4ztp9-53">
          <mxGeometry relative="1" as="geometry" />
        </mxCell>
        <mxCell id="JuR0OPrt6wvXzpf4ztp9-50" style="edgeStyle=orthogonalEdgeStyle;rounded=0;orthogonalLoop=1;jettySize=auto;html=1;" edge="1" parent="J0JZgje_QnxCTfkJuF6g-1" source="JuR0OPrt6wvXzpf4ztp9-51" target="JuR0OPrt6wvXzpf4ztp9-59">
          <mxGeometry relative="1" as="geometry" />
        </mxCell>
        <mxCell id="JuR0OPrt6wvXzpf4ztp9-51" value="AWS Glue" style="sketch=0;outlineConnect=0;fontColor=#232F3E;gradientColor=none;strokeColor=#ffffff;fillColor=#232F3E;dashed=0;verticalLabelPosition=middle;verticalAlign=bottom;align=center;html=1;whiteSpace=wrap;fontSize=10;fontStyle=1;spacing=3;shape=mxgraph.aws4.productIcon;prIcon=mxgraph.aws4.glue;" vertex="1" parent="J0JZgje_QnxCTfkJuF6g-1">
          <mxGeometry x="1600" y="160" width="90" height="100" as="geometry" />
        </mxCell>
        <mxCell id="JuR0OPrt6wvXzpf4ztp9-52" style="edgeStyle=orthogonalEdgeStyle;rounded=0;orthogonalLoop=1;jettySize=auto;html=1;startArrow=none;" edge="1" parent="J0JZgje_QnxCTfkJuF6g-1" target="JuR0OPrt6wvXzpf4ztp9-51">
          <mxGeometry relative="1" as="geometry">
            <mxPoint x="1310" y="370" as="sourcePoint" />
            <mxPoint x="1440" y="200" as="targetPoint" />
            <Array as="points">
              <mxPoint x="1320" y="230" />
            </Array>
          </mxGeometry>
        </mxCell>
        <mxCell id="JuR0OPrt6wvXzpf4ztp9-53" value="" style="sketch=0;html=1;dashed=0;whitespace=wrap;fillColor=#2875E2;strokeColor=#ffffff;points=[[0.005,0.63,0],[0.1,0.2,0],[0.9,0.2,0],[0.5,0,0],[0.995,0.63,0],[0.72,0.99,0],[0.5,1,0],[0.28,0.99,0]];shape=mxgraph.kubernetes.icon;prIcon=api" vertex="1" parent="J0JZgje_QnxCTfkJuF6g-1">
          <mxGeometry x="1176.46" y="310" width="127.08" height="110" as="geometry" />
        </mxCell>
        <mxCell id="JuR0OPrt6wvXzpf4ztp9-54" style="edgeStyle=orthogonalEdgeStyle;rounded=0;orthogonalLoop=1;jettySize=auto;html=1;" edge="1" parent="J0JZgje_QnxCTfkJuF6g-1" source="JuR0OPrt6wvXzpf4ztp9-55" target="JuR0OPrt6wvXzpf4ztp9-53">
          <mxGeometry relative="1" as="geometry" />
        </mxCell>
        <mxCell id="JuR0OPrt6wvXzpf4ztp9-55" value="NFe.json" style="shape=cylinder3;whiteSpace=wrap;html=1;boundedLbl=1;backgroundOutline=1;size=15;" vertex="1" parent="J0JZgje_QnxCTfkJuF6g-1">
          <mxGeometry x="1210" y="510" width="60" height="70" as="geometry" />
        </mxCell>
        <mxCell id="JuR0OPrt6wvXzpf4ztp9-56" value="json path;&amp;nbsp;&lt;br&gt;direcionar o glue para ler e converter para o schema relacional" style="whiteSpace=wrap;html=1;aspect=fixed;labelBackgroundColor=none;labelBorderColor=none;" vertex="1" parent="J0JZgje_QnxCTfkJuF6g-1">
          <mxGeometry x="1730" y="220" width="130" height="130" as="geometry" />
        </mxCell>
        <mxCell id="JuR0OPrt6wvXzpf4ztp9-57" style="edgeStyle=orthogonalEdgeStyle;rounded=0;orthogonalLoop=1;jettySize=auto;html=1;" edge="1" parent="J0JZgje_QnxCTfkJuF6g-1" source="JuR0OPrt6wvXzpf4ztp9-58" target="JuR0OPrt6wvXzpf4ztp9-51">
          <mxGeometry relative="1" as="geometry" />
        </mxCell>
        <mxCell id="JuR0OPrt6wvXzpf4ztp9-58" value="Amazon Redshift" style="sketch=0;outlineConnect=0;fontColor=#232F3E;gradientColor=none;strokeColor=#ffffff;fillColor=#232F3E;dashed=0;verticalLabelPosition=middle;verticalAlign=bottom;align=center;html=1;whiteSpace=wrap;fontSize=10;fontStyle=1;spacing=3;shape=mxgraph.aws4.productIcon;prIcon=mxgraph.aws4.redshift;" vertex="1" parent="J0JZgje_QnxCTfkJuF6g-1">
          <mxGeometry x="1910" y="310" width="80" height="110" as="geometry" />
        </mxCell>
        <mxCell id="JuR0OPrt6wvXzpf4ztp9-59" value="" style="shape=image;verticalLabelPosition=bottom;labelBackgroundColor=default;verticalAlign=top;aspect=fixed;imageAspect=0;image=data:image/png,iVBORw0KGgoAAAANSUhEUgAAAMQAAACECAYAAADP/oQHAAAK3mlDQ1BJQ0MgUHJvZmlsZQAASImVlwdUU1kagO976SEhQEIEpITeBOkEkBJ6AOldVEISSCghJgQFOzI4gqOCiAiWoQyKKDg6AjIWxIIVxYZ9QAYFZR0s2EDZByxhZvbs7tn/nZv7vT///cs9957zPwDIQRyxOB1WAiBDlCUJ9/NkxMbFM3DPAQTUAABGAOZwpWJWaGgQ8gZm5r/Kh3uINSK3LSZ9/fv//1VUeHwpFwAoAeEknpSbgXA7Ml5zxZIsAFBHEL3+8izxJN9BmCZBEkR4cJJTpnl8kpOmGK00ZRMZ7oWwAQB4EocjSQGAZIXoGdncFMQPKRRhKxFPKEJ4HcJuXAGHhzASF8zLyMic5GGETRB7MQBkGsLMpD/5TPmL/yS5fw4nRc7TdU0J3lsoFadzcv7PrfnfkpEum4lhhAySQOIfjsx0ZP/up2UGylmUFBwyw0LelP0UC2T+UTPMlXrFzzCP4x0oX5seHDTDyUJfttxPFjtyhvlSn4gZlmSGy2MlS7xYM8yRzMaVpUXJ9QI+W+4/VxAZM8PZwujgGZamRQTO2njJ9RJZuDx/vsjPczaur7z2DOmf6hWy5WuzBJH+8to5s/nzRaxZn9JYeW48vrfPrE2U3F6c5SmPJU4Pldvz0/3keml2hHxtFnI4Z9eGyvcwlRMQOsMgCPiAYMAAkcAGeYTAAlgD5FRl8VdkTRbjlSnOkQhTBFkMFnLj+Ay2iGs5j2FjZWMDwOT9nT4S78Kn7iVEPz2ry6xFjvIH5M4Uz+qSSgFoKQBA7eGszmAvAJR8AJo7uDJJ9rQOPfmDAURAATSgDrSBPjBBMrMBDsAFeCAZB4AQJOM4sARwgQBkAAlYDlaB9aAAFIFtYAeoAPtADTgADoOjoAWcBGfBRXAV3AR3wSPQCwbAKzACPoAxCIJwEBmiQuqQDmQImUM2EBNyg3ygICgcioMSoRRIBMmgVdAGqAgqgSqgKqge+hk6AZ2FLkPd0AOoDxqC3kJfYBRMgmmwFmwEz4eZMAsOhCPhxXAKvAzOhfPhLXA5XA0fgpvhs/BV+C7cC7+CR1EApYCio3RRFigmygsVgopHJaMkqDWoQlQZqhrViGpDdaJuo3pRw6jPaCyaimagLdAuaH90FJqLXoZeg96MrkAfQDejz6Nvo/vQI+hvGDJGE2OOccawMbGYFMxyTAGmDFOHOY65gLmLGcB8wGKxdKwx1hHrj43DpmJXYjdj92CbsO3Ybmw/dhSHw6njzHGuuBAcB5eFK8Dtwh3CncHdwg3gPuEV8Dp4G7wvPh4vwufhy/AH8afxt/Av8GMEJYIhwZkQQuARcghbCbWENsINwgBhjKhMNCa6EiOJqcT1xHJiI/EC8THxnYKCgp6Ck0KYglBhnUK5whGFSwp9Cp9JKiQzkhcpgSQjbSHtJ7WTHpDekclkI7IHOZ6cRd5CriefIz8lf1KkKloqshV5imsVKxWbFW8pvqYQKIYUFmUJJZdSRjlGuUEZViIoGSl5KXGU1ihVKp1Q6lEaVaYqWyuHKGcob1Y+qHxZeVAFp2Kk4qPCU8lXqVE5p9JPRVH1qV5ULnUDtZZ6gTpAw9KMaWxaKq2IdpjWRRtRVVG1U41WXaFaqXpKtZeOohvR2fR0+lb6Ufo9+pc5WnNYc/hzNs1pnHNrzke1uWoeany1QrUmtbtqX9QZ6j7qaerF6i3qTzTQGmYaYRrLNfZqXNAYnkub6zKXO7dw7tG5DzVhTTPNcM2VmjWa1zRHtbS1/LTEWru0zmkNa9O1PbRTtUu1T2sP6VB13HSEOqU6Z3ReMlQZLEY6o5xxnjGiq6nrryvTrdLt0h3TM9aL0svTa9J7ok/UZ+on65fqd+iPGOgYLDRYZdBg8NCQYMg0FBjuNOw0/GhkbBRjtNGoxWjQWM2YbZxr3GD82IRs4m6yzKTa5I4p1pRpmma6x/SmGWxmbyYwqzS7YQ6bO5gLzfeYd8/DzHOaJ5pXPa/HgmTBssi2aLDos6RbBlnmWbZYvp5vMD9+fvH8zvnfrOyt0q1qrR5Zq1gHWOdZt1m/tTGz4dpU2tyxJdv62q61bbV9Y2dux7fba3ffnmq/0H6jfYf9VwdHB4lDo8OQo4FjouNuxx4mjRnK3My85IRx8nRa63TS6bOzg3OW81HnP1wsXNJcDroMLjBewF9Qu6DfVc+V41rl2uvGcEt0+9Gt113XneNe7f7MQ9+D51Hn8YJlykplHWK99rTylHge9/zo5ey12qvdG+Xt513o3eWj4hPlU+Hz1FfPN8W3wXfEz95vpV+7P8Y/0L/Yv4etxeay69kjAY4BqwPOB5ICIwIrAp8FmQVJgtoWwgsDFm5f+DjYMFgU3BICQtgh20OehBqHLgv9NQwbFhpWGfY83Dp8VXhnBDViacTBiA+RnpFbIx9FmUTJojqiKdEJ0fXRH2O8Y0piemPnx66OvRqnESeMa43HxUfH18WPLvJZtGPRQIJ9QkHCvcXGi1csvrxEY0n6klNLKUs5S48lYhJjEg8mjnNCONWc0SR20u6kEa4Xdyf3Fc+DV8ob4rvyS/gvkl2TS5IHU1xTtqcMCdwFZYJhoZewQvgm1T91X+rHtJC0/WkT6THpTRn4jMSMEyIVUZrofKZ25orMbrG5uEDcu8x52Y5lI5JASZ0Uki6WtmbRkEbpmsxE9p2sL9stuzL70/Lo5cdWKK8QrbiWY5azKedFrm/uTyvRK7krO1bprlq/qm81a3XVGmhN0pqOtfpr89cOrPNbd2A9cX3a+ut5Vnklee83xGxoy9fKX5ff/53fdw0FigWSgp6NLhv3fY/+Xvh91ybbTbs2fSvkFV4psioqKxrfzN185QfrH8p/mNiSvKVrq8PWvduw20Tb7hW7Fx8oUS7JLenfvnB7cymjtLD0/Y6lOy6X2ZXt20ncKdvZWx5U3rrLYNe2XeMVgoq7lZ6VTbs1d2/a/XEPb8+tvR57G/dp7Sva9+VH4Y/3q/yqmquNqstqsDXZNc9ro2s7f2L+VF+nUVdU93W/aH/vgfAD5+sd6+sPah7c2gA3yBqGDiUcunnY+3Bro0VjVRO9qegIOCI78vLnxJ/vHQ082nGMeazxF8Nfdh+nHi9shppzmkdaBC29rXGt3ScCTnS0ubQd/9Xy1/0ndU9WnlI9tfU08XT+6YkzuWdG28Xtw2dTzvZ3LO14dC723J3zYee7LgReuHTR9+K5TlbnmUuul05edr584grzSstVh6vN1+yvHb9uf/14l0NX8w3HG603nW62dS/oPn3L/dbZ2963L95h37l6N/hu972oe/d7Enp67/PuDz5If/DmYfbDsUfrHmMeFz5RelL2VPNp9W+mvzX1OvSe6vPuu/Ys4tmjfm7/q9+lv48P5D8nPy97ofOiftBm8OSQ79DNl4teDrwSvxobLviH8j92vzZ5/csfHn9cG4kdGXgjeTPxdvM79Xf739u97xgNHX36IePD2MfCT+qfDnxmfu78EvPlxdjycdx4+VfTr23fAr89nsiYmBBzJJypVgCFDDg5GYC3+5H+OA4A6k0AiIum++spgaa/CaYI/Cee7sGnxAGAmh4AIlcCEHQdgF0VSEuL+Kcg3wWhFETvAmBbW/n4l0iTbW2mfZHckdbkycTEOxMAcMUAfC2emBirmZj4WoMk+wiA9pzpvn5SrBoB4NRP0kNYfRz8TaZ7/j/V+PcZTGZgB/4+/xOachszcEA+BQAAADhlWElmTU0AKgAAAAgAAYdpAAQAAAABAAAAGgAAAAAAAqACAAQAAAABAAAAxKADAAQAAAABAAAAhAAAAACwiMK2AAAbcUlEQVR4Ae1dB3xVRdY/CekhjRB6C0WkiajoUkTE3gviZ8GVtaxrQ107oNh1ddeCrgWwoYJ8qBQVrNgVUVARpNdQAoQeAgkkd8//hLnc3FfybsiLvJdzfr/37tyZM+0/c6acKTfGYiIlRUAREARiFQdFQBHYj4AKxH4s1KQIkAqEVgJFwIGACoQDDDUqAioQWgcUAQcCKhAOMNSoCKhAaB1QBBwIxDnMUWWc1ebqqMrPwZCZI5eOOhiSEdY0aA8RVng18EhDQAUi0kpM0xtWBFQgwgqvBh5pCKhARFqJaXrDioAKRFjh1cAjDQEViEgrMU1vWBFQgQgrvBp4pCGgAhFpJabpDSsCKhBhhVcDjzQEVCAircQ0vWFFQAUirPBq4JGGgApEpJWYpjesCKhAhBVeDTzSEFCBiLQS0/SGFQEViLDCq4FHGgIqEJFWYpresCIQtQeEwopaJYHHN8ykrNOOpNSuuZTcoTnF1Uuj2MR4KttdQiVrN9Hupfm0/Zt58tu7ubCS0NS5JhFQgahGtFO6tKKmt51HaT0PpZhY3863Tt0kiq+fTqmH5VL2eT2orGQvbflgJuWP+ph2L1pbjSnRoKqKgApEVZFz+ItNTqTmwy+i7At6UUxMjLiUFu6mHTMWUNEfebQnfwuVFe+hOnWTKaFZNtXt1oZSu7Wm2IQ4yj6/J9U75y+0fvQntPapyWTt2esIWY01jYAKxAEintgyh9q8eD0lH9JUQtq1ZB2te2YKbf3016CVu056CuVc0ocaXH4CxTfIpEbXnErpfTrRkr89Q3s2bjvAVKn3qiIQE62XHdfEJQOJLXLokHG3U0KjLLJKy6SFzx/5ERGbQ6XY1ERqekd/yrm0r/QuxWs20eKB/6HiVRtDDaLG+PSSgRqDOvIiQgvf7o1/ijCUFhXT4kFPUf4LUz0JA3JdtrOY8oaPpRX/HC1zisSm2dTu9Vt4Il438kCJghT7zvyiIFM1kYVWjw+ixGb1ZW6w5MoRtOP7BQcU7eYpM2nZdS9IT4OeJ/dpvkZn33zkgAJWz54QUIHwBFc5c+Yp3SjzpG7ysvrh8VQ4c1EVQvH1su2LOZT30HhxSO/VkecYx/kyqU1YEdBJtVd4udVuent/8bX9u/m08a2vvIYQlH/jmOmUcVxnyujbhZqwCnfzlB+J6sRS/f87liAkCU2yqLSwmIrmLKeCd77j54qg4amjNwRUILzhRRnHd6Gk3Ibia/WjEzz6Do191X1jqfOnD1Icz1Nyn7qaUo9oTXEZqRU8p3ZpKRNxCEXe8HG86FdcwV1fqoaACoRH3OoP6C0+dvy4kHbNz/PoOzT2krwCKpjwnQyZIICgvVt30pYPfyKodeOy6spKeHK7JlSf1z6g5cI8xtpbGloEyhUQARWIgND4ceDhUlrPDuKwaeIMPwzVZ7XxzS/sOcT2b/+gZTeNpFIWCkPrRrxPjQefRU34l967IzW69jRa9+wHxlmfVURAJ9UegEvu0IxXm5PERyH3EOGkXQvX0Fpe4Cv4/29o6TXPVxAGiZe/lYkFwIIJ38pro2tPpzqZFYdV4UxftIatAuGhZBNbNBBubMuoiYUz9AIr7x4TdH6w5on3RPWLzYPZ5xzjITfK6g8BFQh/qASwi89JF5c9G7YG4Kh5672bdhCGVCAznKv5VERPjCoQHsoyLiNFuA+2yevOX5ZJulJ502DdYw4RNa2HbCmrAwGdVDvACGRM+0t7nrSeTmm9yifUsSmJgVj/FPviVRsk3vjsNGo/9nbaU7Bd5h7rR31CpduL/pQ0RWqk2kMEKbmY+Dhq9cTf6JC3bhNNDrZ27+EhyoZXPwviq+adtk3/nTa8MV1UsogdZy4aX3cGdf7qUarH5y6UQkdAd7sGwAq7ULHJDmcXQFh3wCR3x4+8TYM1PAcrJfD+qpyL+8iiXZ20ZEnmBl79zrt/3AEnuTbsdlWBCFBN2oy8gTJP6EpWWRmtfmRCjfUKcdnpHO9hcoAIlbtOahKV7Sqh4tUFsk1j2/Q5VLJuc4BU77eOb5BBLR8bJNtAYLuOd+Ku/ffE/QxVMKlAVAG0g8XLgZyHyD6/Bw+VrpCsrLznTSoYW737lfxhlMSrzk1uPls2Dcbw3qVAxOdXaPtXc2nt01Oo6PcVgdjK7Tmc3H9fQfXOLlfHLrrsSd6VOz+4nyCutUEgdFLtrgA8T2hy63liu+WjWTUiDA2vOpk3DJ5PMXF1JF5osQp/WSrnrEt37CIM35JaN6a63dvJsVNs/EvnDYCYy6D3CjiE44NKK+4aQym87ykptxE1u7M/zT/nIXeO9d2BgAqEAwwYsdNUTsBxS7zm8QMbYriC9n1l4Ws94u+UdfpR4oYJe/7zH9Km937wqx2CYGSd3l22ayQ0qUcNrziJEls1oOWDR/Gwyv/mPqu4hPIeHE/tXrmJUjq3lF/R3JW+aVEbQSBw31xLAUrjfUGgnbOWUvHK9WFFocWDA21h2PLRbJrbbwhteO1zv8KAhOB03SbeqjG331AqGP+NpC2zX1fKfSb4N7kxxDKLiehZlAIjoALhwialY3OxKZy9xOVSva/1oQniHwgq02XXv0BlvCXESdjVGs87Wd0n53Azx8ohY3geMVnYMflvyJcUBKPCn8vzk8L7sZQCI6BDJhc2uCoGtJcXt8JFOI+N8TwIF5bl3f+2HVVMYgI1+vvJVP/C3nwYKFvsMRza+tlvtHbEFCpetr/Xwu7WRD6bkc3X2DS56WzeHv4zlbA2yh8V85ZyUHxOpj9ntduHgPYQ7qqwT8ODWzTCRQ0GnUB10lLkUoGVQ9+wJ8VQuXaYPJS1TefYwoA04N6nrDO7E85auynvvnG0l1ejsbmv4dUnu53td9waCIpNirft1OCLgPYQLkzK+AYNUCzr/8NF2f17StCYD5TwtTNCPMFuO/oGwqGfvVsK+UqbSYQVaKhZ03sfyqvPGbT9y7k+ScLWDGib0ENAvbqaz2Rbe3wPCsXE79NghVHQfRIXgRbaQ7gKrXhl+b6g5LaNXS7V85rUupHc1oHQtkz92Q603rl/kSsuoWZd0P8xOauNBTjc+rfpnR8o/0W+7ykA4SQdCEdOU7u29stljr3iblmlwAioQLiw2fnrcrFJ4wP97smsi7VKr8n7Ju242nLHT4vtMOrxkAi0nlt7r9otXJ5cwoIDSulUrhSQl31/6B3M1vCdeimBExofswqEC5Ktn/EVlLxdAztHcYN3dROurQSVrOXtF47hS1KbRmJf+FPVrrQpztso/uMbslbKRfXO7SGXFGD4tfWTX1yu+upEQAXCiQabMUTZ+vFsscVN3tD6VCfZY3m++dtJVmn5hsHYhKpNeq194ZnwTdhxLNjIB2jb579R8YryIaFx12dFBFQgKuIhb2uenCTHMhNbNqCWj1zmh6PqVuZ8gvuqyl0LV0ug6ftu2fAaA9YsQKXb9l9EAPVu29E3ynZwaJnCdW2O17QezPwqEH5KB7p+nFUGZfNkF7tG3S2vH28hWe1eli988TkZfOt3hu1n86QZYs65qI+cvbAdQjDEJvFepzblSoDdy8vXKVIPb02HThwqE3UMlXA2W3uHysFUgQiAEVSZOEcAqj+gFx06aZjcpnegE+2iOSul90G4GScejocQxvbbvp4rG/yw7dsLpR/bQdYh4Kdw30Q9oXEWJfE+J2wUhDDIDYBeAq2lvLoOEaTgcagG32rAQlnKoc2o7cuDpTLLviAPZ4R2/LBAtlogKqw6b/vyd8o65Qi5d6lg3Nf2wtyyG1+iBgP7UsHbbOeBcgYeL9zYnrFnwzYxb5k2izbytnVcU6PXXYYOpgpEJVjlPz+VdvAdrk3vvoDSuh8iLXFic98V42DB7FpS8XNZG17/XAQihb8/h7MXm979XrxjL1Ow9QZ/cWCzHi4qA9XhSxAwNzHfrVvFZzmUvCGgJ+Y84JXA327Ad+Tk9g1eWQ6VsBqNPUtOavPS9ZTJQ6bSnbtp4YDHCBeTeaWExvXo0MnDREVs/GJyvujS/8hqt7GrrmdtOCCkAlFdtcVjONAKdZhyD+9Zqkcl67fy7XzP8Qm40M8pJLZuSG1H3igXL+PitDWPv0vNhgzgvUoJLFzhEYraIBA6qfZYkauLHfuVlvIHUvaymjSBP+Pb/u07CCfncNNHUMLV+LxtvMN7Q0QYsOK9bPBLvNXjS1ry9+dkjpPcvhm1e/NWvdoyKJD+HbWH8I9LjdlihbrtqzcTPqUFwv6lze/P5I19c2jX4rVyRiI2OYGSeG8Vjo5mnXm0aI9MAiEEWHAzhPkELkjA7tcivp18EX+vznlJsuGryrM29BAqEFWpGdXsR85H3HVB+Wd9g1ww4C/awtlL5ft2OE1nKP3YToQ5SnULRW0QCB0ymVr0Jz6xeo0TcPNOGsZapmm0e+k6v6nBfqUNr02neafcS6vufUt46h7Rhtq9dotcRGA8YQK/9NrnZfgETdYh/HFICJ1S5QhoD1E5Rn8KBy4ZS2jO9zLxtZm4lwmbATHvcBI+5dvigUvFym9P0bcztXn+uvKeYt6q8uHTAVxtqT2EE3011ygCOBex6488wmJbEVdmtzAgMZhIB+0p+EARvmxaxhv/Ujq14J7k5son7TWay4MvMh0yHXxl4ilFlQkFVsXlc7+8hSO1ay6vjpdfbOApklrErAIRBYVdqVDw53437ds8mN6ncxTkOHxZUIEIH7Y1GnJlQmESE+yaTMNTm5+VrALVZmgiL+8QChAm2tA+YbFv/aiP+XY/vqqGt7GDdsxYKE/984+ACoR/XCLW1ghF8/svoZSOLeQ71yYzUOfiUjSlwAioQATGJmJdIBRYs8BneyEUZbyBcOunv8qhJ+cCXsRmMIwJV4EII7h/ZtDbv55H+Cl5Q0An1d7wUu4oR0AFIsoLWLPnDQEVCG94KXeUI6ACEeUFrNnzhoAKhDe8lDvKEVCBiPIC1ux5Q0AFwhteyh3lCKhARHkBa/a8IaAC4Q0v5Y5yBFQgoryANXveEFCB8IaXckc5AioQUV7Amj1vCKhAeMNLuaMcARWIKC9gzZ43BFQgvOGl3FGOgApElBewZs8bAlF7UZk3GJRbEShHQHsIrQmKgAMBFQgHGGpUBFQgtA4oAg4EVCAcYKhREVCB0DqgCDgQUIFwgKFGRUAFQuuAIuBAQAXCAYYaFQEVCK0DioADARUIBxhqVARUILQOKAIOBFQgHGDUlHHu3Ln0yCOP0N69e2sqSp94du7cSSNGjKC8vDwft0ixCAeOngTi+++/pyFDhtCiRYsiBbMaTycq2ieffEKPPvoo3XDDDfTYY4/RzJkzK6Rj9uzZNHToUCou3v9t6QoMNfBSUFBAN910E82bV35D+Jw5c6Rs169f7zf2SZMm0UMPPeTXDZYTJkygZ555JqB7OBzCgqPlgXr16mVxxqzrrrvOg6/aw/rHH39Y7du3F4waNGhgHXPMMVZKSoq8n3zyydbOop0Cxuuvvy52hYWFfxo4K1askDRMmzZN0sBCK+8vv/Ky3zR17NhR3FmA/Lo3a9bMOvPMM/26BbP86aefrJdf9h9nMH9wCweOIfcQixcvpu+++464oOmVV16hol1F4RD6iA1z5cqV1LVrV9q+fTv9+OOPhJZ2xowZtGXLFhozZozYrVm95qDN3xFHHEFZWVk09cOpPmlcu3YtsbCL/WeffebjvmDBAlq9ejWdffbZPm6VWXz00Ud0yy23VMZWY+4hC8T48eMpLS2N8Ny9ezdNmzotpERiCAF+N8G+sjF0WVkZbdq0ibgldXuv0jsqJ8IMhXbt2uU33YH8Pvzww5IfNBpHH320zZaQkECXXXYZ5efnU7t27Wz7ygxe0lpZWMYdQ7RADVmdOnVowIABNGXKFJ+h3DfffCNBtGrVit5//30TnP2cPr38M13cC9p2xoD4NmzYEDLuxp/zWVJSQps3bybuFJzWPmavZeYTACwq65bgXlpaarVo0cK68cYbbfNZZ53l1+u4ceOs+Ph4i1tM69RTT7ViYmKkq2WwrW3btlnz58+3jj32WLHjQrAuv/xyyz10QHd+xRVX2MMNJLNbt24Wt7gV4mzevLmVmppa4Zeenm6tW7fO5uOW2ho4cKDFrZ/EmZiYaJ1xxhnWkiVLbB4YTLq5pbO4pbNiY2Ml7ccdd5y1bNmyCrzul3X56yTsa6+91u3k9z1QVx9qWjGsAXYoFyfxBFnSzK2409rCMKdPnz7ihvI44YQTLJ7nSJrNkAkeeJ4gdl988UUF/1dffbXVs2dP68EHH5QwUI5OAp5dunRxWlmvvvqqlBnKDj/UiTvuuMPixlH4uFeRcgPOcDfleO6559rh/P7771bfvn0lTvDk5ORYTz31lJ1vgyPC8lpmdiQuQ0gCwS2EJBpP0P333y/vqAhuMomsX7++hcwB+Kefflr4+/XrJ5UcwvTxxx9bPAkTewDlJJ6MWocffriAysMPa+LEiVZubq4Awj2LzYrCfOedd+zfUUcdZcXFxVncugoPt0wWxvIQhpdeeslCQb/44otWvXr1LG65LVQgQybd4Icgc0so4WZkZFidO3e2uGcxrD7Pr7/+WvIxdepUHzd/FiYuZ0PgJa0vvPCCxMc9bIXg3fMCOK5atcpCI4A5wLvvvmuNHTtWKrepqE6BQEWHwNx9990Vwm3cuLH1wAMPWCgL+ONexHbHvAiVevjw4bbdmjVrJByetFsQTlbGWLfeeqv4ffbZZ4WvqKhIML744ouFF3jjhzkFCHmB0EPQ3pv4nvXpp59agwcPljB++OEH4TE4In9ey0wC8PMXkkD84x//sACKaZEgkQDGZM4ZrknkoEGDLGeBXXrppeLHbY/WG8LjJFRoE5exR2VDnCgUf/TLL7+I+5NPPmk7Q9BQwKwVs+1gMOmH4Bky6UZ69uzZY6ztidtvv/1m27kNr732msTNakC3k993E5dTILyk1YtA3H777YIBBMMQKiNaVODpFAi4n3baaSI8htdgBaFHeaIHvv76642zVHiEYyopHNB4bNmy2eYxhiOPPFJ6Z/OOJ3odhOmmK6+8UhotHjJXcGLNkrV161axMzhWpcwqBOp4qVQg0CJDAlnd6vBmWWiN0Yq7ySTS3a0+99xzUgBu+//+979ib7pSd3jmHcMWAP/BBx8YK/uJCgywMaxyVmYMqS655BKbz2lA78VjetsqULpNhXBXHNsjG/71r39J2jDcCoVMXE6B8JJWLwKBFvaCCy7wSZbB050vEzZaaNCoUaOkpebxubyjQUPjaHrMO++800Iv6mz8hNHP31VXXSVl5HQKJBAYoqMhDkYGR3edCqXMAoVb6aSaW2aZZPEwR56YmOHHXR39+uuvBP21P8IkzUkMmry67TFRB2Hi5KSff/6ZbrvtNmJVHrHwyRPunBEnm5hZqGjWrFk0evRo4iGT2CGNWHTiCuHDD4tOnToRzyN8Jnvu9GVklqebW1W/4cCSVY7iholzVaiqaQ0lroULFxIPl3xYeZjjYweLU045Rew///xzeUKrBLukpCR55x6EeI5mr19gko3JuBs34MUVlnhkQDx/IW6sRCHjr/wkYMcf8OAejdq2beuwDWx0xx1KmQUKzT8qDm4eDshbjx49BBQAgx+PCcWeJ6MObu9GHtL4eIImq3v37vTVV19R7969idc9iLtQHz5YLF++XASHhxwE1aEh7inE6AbLuEPb5C9u426eMeSbPuNmnrm5rcQI1XRVqLrS6o4beUTYoeTT+OW5mggQGkIetopW6aSTTjLOdPzxx4uZx/RSaaGOPf2M0213GHbs2CF8PBmnzMxMuuiii2QR0Fk+FTy4XkzjGKjsXOw+r6GUmY+nfRZBv1ONluDDDz+km2++mS68cIBPGMOG3SOtMnd7dsvsw1QFi7vuuotOPPFEgo7agAI9txFCEyRaGx7PEnfhdO+99xpredatW1f06tx9VrA3L7BHyxmopTR8oTw7dOhAUK9ipRaF75W8pjU5OVmi4KECsYLAjs7d+iJv6L3QE7oJwhKIzj//fOJhoKydoKVnTZvNypoeQuPIQ1eJG8LW7/h+tjsMqDNYnUeDht7BEE+YCbsd3ATBcxJGDfjxsM5pXSPmoD0EluNBaKF79Ojp87vmmmsIWwBYe1NtiUXrwONXQktlhAGBY5HLTeideAwsQslqO7czQS+ORTH3UAbDCNZcUf/+/X38VMUiMzOL7rnnHkkja9R8gkCeRo4cKYtXPo77LLyktUmTJuKLFQl2cOgJ0JC4CZWZNXHEE1HbCRXwvvuG2+9uA4ZFCG/YsGFSMQ877LAKLFiAQ5m/+eabgrEZDhsmU5FbtmxprKTXwFYLN/FKPmFNCusMToIgYQEYC51OYuWGLHo67arVzK1KQMKEDJPnQIRJIfTLf/3rZTaLmeg4J4xwfOONNyxOuM+ag7HnjNthYMsDwmVARKsElR784gfVHAiTcEzmMBmFCtf5M+pgaH24BROVLdYZsD3hVdaPQ+0K9apTExIo3SxMEi9UlsEIEzvo6pFGaHCg5oV68vHHH5f4YW/WPvzF5SWt0BJBlYxtIt9++61oeqAdgvoT8TgnytD+wI6HOhY0RVCBQkXJw14fXpM/FgaLW2hx5x7PWNtPnq+JG8KFUsRNKAu4cYMjcU6ePNlek3ArYlCe4IWKFipX+AUhX7DnRU5R3SPdLPBSnl9++aXw+MMRDqGWmQTi+guoZTJaCGiHghHUY9yS21oGU8Gd6wXw/9Zbb0kGA9nzuNOOBot30BgBEPygcYB2CZWbu2PhgwCZCmD4zBNxGULhQQNl3LBOgYIyQmP4AqUb6wPwC114ZcQ9gejrzb4f+EN80LVDLWwoUFyhphXhYJGSV47tfEEgsJCFOE2lMvFhHYd7FXEDhhBYqKLBy8NSw1bhicU4uKNRchM0SmhQ4L506VK3s7xj3QJxgQflhAVY7nEsnkdU4Ifw8RBN+MB74YUX2u5oUKDRgj1+aASeeOKJSuualzKzI9tnCHqVJboydGmcMU6Pf0L3C60A+EAYm+4u3k0pyeXvxpdXe/jDcAzE6xTyxDaA5KTkoOkRRj9/8Ltxw0YZUzuHYoY1UPrgjnE0xu3BcDDhmCewww9px1jeScHiAl9laXWGlb8+XzAxw5ZgacWeJExyTVkF40Ua4Y75jT/CkAplb7RP/ngwVEQZZmdnE6vuhZ+FScxufgyZSvaUUIOcBj54cQWXbTRNmzatMIwOhmOwvLnjdr4HFQgno5oVgdqAQMWmqzbkWPOoCARBQAUiCDjqVPsQUIGofWWuOQ6CgApEEHDUqfYhoAJR+8pccxwEARWIIOCoU+1DQAWi9pW55jgIAioQQcBRp9qHgApE7StzzXEQBFQggoCjTrUPgf8BX7SMvpRjTNgAAAAASUVORK5CYII=;" vertex="1" parent="J0JZgje_QnxCTfkJuF6g-1">
          <mxGeometry x="1578.18" y="20" width="133.63" height="90" as="geometry" />
        </mxCell>
        <mxCell id="JuR0OPrt6wvXzpf4ztp9-61" value="criação do json path de acordo com o schema requerido no Redshift" style="rounded=0;whiteSpace=wrap;html=1;labelBackgroundColor=none;labelBorderColor=none;" vertex="1" parent="J0JZgje_QnxCTfkJuF6g-1">
          <mxGeometry x="2000" y="320" width="120" height="60" as="geometry" />
        </mxCell>
        <mxCell id="JuR0OPrt6wvXzpf4ztp9-63" style="edgeStyle=orthogonalEdgeStyle;rounded=0;orthogonalLoop=1;jettySize=auto;html=1;fontSize=19;" edge="1" parent="J0JZgje_QnxCTfkJuF6g-1" source="JuR0OPrt6wvXzpf4ztp9-16" target="JuR0OPrt6wvXzpf4ztp9-51">
          <mxGeometry relative="1" as="geometry">
            <mxPoint x="1569.9999999999995" y="200" as="targetPoint" />
            <Array as="points">
              <mxPoint x="1416" y="170" />
            </Array>
          </mxGeometry>
        </mxCell>
        <mxCell id="JuR0OPrt6wvXzpf4ztp9-16" value="Event Bridge" style="shape=image;verticalLabelPosition=bottom;labelBackgroundColor=default;verticalAlign=top;aspect=fixed;imageAspect=0;image=data:image/png,iVBORw0KGgoAAAANSUhEUgAAAQAAAADFCAMAAACM/tznAAAA2FBMVEXNImT////MIWPpssLLA1v+/P3NJWb++/zHAFD66vHdhJ7HAE7KD1zUZYH35ub78fTdfpfHAFLFAEjJC1j89vfGAEr56+7KIFv02N/PQm789/b35enrtsLJElnCAD3y0trQUHPZdpDnp7bilqfNLmLQO27uxc/rvcXVUX3UX4DhjqLloLLosrvNLmbRVXfvwtHWYIPII1fjoq/MO2XXbozuytDgfqDAADntt8nekKLgmqjRRnPmmrT01t/dhJfZa4zqrMPUQnnQNW/ecZjpoLrOSmzjgqrhjKk6ti9rAAATo0lEQVR4nO1dDXuiSBIGsgIX8AMbFSXEz+hoopNE3VvjbrJze3Pz///RdVWBgrFRzAhml35ud70EO/Tb1fXxVnW3JMe1q1+kT99+uYodopQDkAOQA5ADkAOQA5ADkAOQA5ADkAOQA5ADkAOQA5ADkAOQA5ADkAPwUwBQwu3njSdxywYAHLSq4mdVyhSCrACAfzwTm0IY/NRhHd/SB4APFYbvsWlzXFwUZ3ceMxGPbCDIQAIAAdYYT/786pRKpfZv95W1ZxIqGWCQNgC43k1v3HO23djDSdPDsf8DAAAEzLsVDL+gUeMfteFbw8xi+KkDAALgNR9suQCNg1CQ6YM7GZhSFiKQLgAwfrM5woFDs8st/C//v/U+RyADJZAqALj+725o+Jpz0+uvXnrDOnVWrzSUDBBIGQBJaay41PPvlnpjxeKNTV9HZfyJ++hlYAvTBAAXwNiF0RacLpp/7gJ51rxflwGVm3kGiyBdACRl0MPZdsaWoqo4XFXyvAlfBgXZXnhK6mowZQDMMUy27C50Rd2EQqpp3ZdlFIFdLaBEgyZR+4D5SBUArgEmYPbsez7/m7FyBLy7NopA8f0a4IJysCkfEJyUARjcyNzxcdZM3bwzAqGvymAarnfXAGgNQ9cNYdN13ULdeSoC6QJgdkAFFkZW+IX5Z5WtuW+oyb83dgGQzHX/Or5V1gy+dSICKQMwBkkvr3Q1OkzV9IYAACqB6G/0a/tf8c1tv7HTKYWUAVgAAO7CUsPvCwJsPRQKmjycm7sAGBNZK8Q3edQ0Tw6nMwFgzHYBkIwHTQDAtWxrcY1/zX5lJzuRmQDQtSJLACVgxKNDeblXAg61gtzusFO1QAY6oFDuG2pYYsETMJegA357rwOs11YprtkAQKF/chyRvhXQCvLQCqttcIXY+g8IkfZZgWa3GNdWLgpV8VQRSN8P4Obe6VhhP4h/MF7swA949x0zrrHGCFwruTc4kVBJGQDvGtaA9mAo/iJQSADmS5jH+njXEzw4qyp7c9C0dk80hemGwxgLaBD7G1IkFuhpMIreYHfAB2MBSWH8u1wEhmAKTxCC1KPBe/ymM+YyQINTVc+4R1XWWiQlBEh9YByhoRt92QCQCPh8QMWwTAhkJNNo9GzqLjkphhZ0VQYRcMAURmTj8gCAt/ImxIiVRzOrauhGtVFZwvj5CGZe4hnEBTRFBSKDKeRKAVGVjoYgfU5wcIVcsKzVnZvJa3/oIhXAEal4yYM6HKfVRVNYLnKRUkzGmGkS23LMgkp7CXAE5sSK8v9pdtmmTwW5RJxoYhGAHr0RUmpXT7WaMViv13OrZjAinA52mHZeAN530PN5cT85IKMFePJOc2VAD87QFLa6jyO3Ds1dTqZVdhQCqSdGAIFGxaHEEB8//5dMb89OiujwO9Yz+lHlsha8ml0eTavKEVxR6rlB8oeaEzfalc8JnyACaArv/qBeCkF33Dco96veYQQyyA2ie+vN3+6XXP3J9dH1GxpyucJOIjdBylWj4voD30iVJmvLGjuIQGb1AdyLHwzm8/ngyav2ywU05CeJANq72gTAlDcrAEIu3mWpFmUeLgKAAIJNmZBqDpbY3e+n2AHsy4DEAiUc+otvj683BIYmL28PdZlRiUzEZ1N9Q946KaaF748dtIPy19mTxf0ASx+syM7Kk1v10pbA9sU3LivyQaAHB8kXAUgQ+0rzP3liUHulSqpZu2sRJg2mxopA5nWCCgU0aMjlbnJuDwSAa0DQ/xUrCLC4I2jpgAAsgngRyBwAfxG/2DBfzvfEIgCO4JDm3yK7T/+o1oDMomrF6sHsAcDEiNdoY48/EnN7fKSPDhIC5Ecgy4Km8faaC4At96uxInAJAEDRpF7BBHFrllAPQixEdNpryI0ABFSziiJQqsZ2eAEA4IgVY+kHNMnSXEAJjUDdO7NwcgT1wG0PHQPLVC8fAC7Ivh5MmObiq0f6Cp7vn1MzvNZBBKwZugZNljkAvtkXrm6c8hoPaGAmsUwkngaMAqB+hXHeN3bYRKBaZcC0qGcNAK7N2NgUBNZTqHby2outBZCivWwA6O9k1gGAAQLwljkAWBrCiAjfDwG8Ow9o6iACre81y9L3N8syd6jyWAkgAMZWxgAgETZd6Myvjxc8oypGG9fssFsRtu7UiiIQ0gHKrg7Qx9jfPGMdgCrt6Upe3hlmTD006ME7N/bPQSs/6mpYS/JRi63A1UVYAZgv9gUe701NYcCPZSJT1AIxlQCaJrvMVEMisPUDrtm23pz8AAOj4uz9AD4ZT0sZiqIfdJFTRq7AaMPoCFuh3K9FiwtUq+h7gl7UE6yCJ6hl7gmiW77Ax13FE7jlFBQ/Hl4B0MsdCy8CIoU3diAUY/uxwDSeEzk3AEQDl2Eu7ElV9CpEbpMOLIsbJlBaD3o0uS5Z3I1GZ9gyJSlQBPqUosFRxtEgzIUxQS/XNSKrN/qQIumvGA2U5rX9VXG6Xp3hTLtg10LqTjUZMED8NyvgA3hTFVNf+3zAIFs+gChbfLtd/b3zlDclV7himQIP0DSf7nFQS8+MIrBlhB4HT8AIPTUnPiNEGiAzAFApGVAcyV+7Kkr340/1Z2QE2nNT6C2oZgfryuuv+oZXJPVJdZawgJY//iq+/epLRCFzTpB0Gz5bn1pxAsC+BLGQJAkkIKivkGVnEBIB/IX+AtCEjAhlnpZVM1NWmGbHAQEo9GJkEVlBnMKHgXDGKK8IirJQftGl8GNg81dIixVwC1LBzzaNaPzZkaKoAa/xXdB/EdkAMJT4/q1xDCWG5SBdEoFIsTH50WPIstMeJNnPvnar2WaG0B1rtMAEat2a6F2UIDPgp/jFAASpZT7DD1ZIUhSqk/BWTl2TSQhQDuRWQ4x6CgDgsq32UD87NUXwKvhTa4JFAm4ntuQVOmTFFm04sCQligBfBt7ixnGxjVxEoFcNPZU+AODeN8kEdmKoWXgKNWChcmDHCEx0o0+msBEOcYgHlky9xtRv3779R7ldU9lFkwlcjzQAgNeqLtEEPohNIErvMxZJHSz0wkUwQ21Rn1hRYoS4VVXxYCOWKVUfKCsQHwmdFQDUgG84XfUBE5lAGAUbO7Rl6FBaJGwK282oi6f42tBvbEAbsd6MA1rgbABQQOqiAIgDMqqXgGJPbU+V4N4vmM0hiABsu3lXVbl1IdRqH0VA7H+fGwAMSP0gQBe+hIKxDKZG68ekRmGMrGujKRwzkbwg+DpuTpHFEdh5AUDvbtAKiaEAAB4ELNFsH1XwTcHlFaVSPVFZIaoDf/m1DkRDZwIAp7IaBAFi707Z1Dm2jyuPgI5YEcNft2uJ+yUFDIvgRqiAzwqAgnkJ9EbuLKE/BqOZYYFM68hKV3SUwBRymVneidwGSrVghlyWZ1acCJwHAMUneTVyRkQzgEqdap2P3vZDprAN3ylPhGaDJLCHItA2RE7YGQHgWqhWkQ8HARJbkAY8vjKATCHqQdwpI+oaiBLcpipXajGG4CwAUMK7hEqoIgwCMF8COyiC/Q7HArAxha1n4brBRcDnAF6h1PDECJxLAg4HATgUdk17iYsJqiQpKkRqxCnGioBSI6aIVmGqAKgMODk+SV908fpTJI9mUlslqotQgpLroKpIiID+BZ9qrcXJoXMtAWOI2I9uxRE5rGUygcNOoo0CZApJd1yzmOhZUW+p+mpopLsEuAn6gowEBQGicajeF/SB6pVktVEKRYWoB0dTMYeIvhguscIXYYL0TABUf9XQB/q3GpMNVLkJAPZq2RFOoxgBq4hR4XDtCaUb/MF/ozek/VpNGYCoBAiWwHklQMlSAsI6II4KPbMOkLLSAcdZAeXvawX+8X5A7gn+02OB3WgwRgSSR4PKkdGgkmU0+I/nA3JG6OycYOEAJ6hkzAlK71jh3VT35lX/pqzwbl5A8bc1B3t6t1m9U/MCL5b4ce4DXkJeYJsZajBVMpleq9YgbUXHCAcQ/KTMUOQp5QIyQ1IkN3hrGazz9uPHj7c1M4KtPZsx/YTc4M5Tl5AbxEVgUXbY7qxHjuuWy2XXdR5mlhXe1fsTssO7j6lWx88OWxlmh7f1AdzZd6l0Ac/QrQ/HBgaxCj314fqA3afCQUCG9QHStkKEWnCUrlyoPzcwjPUR+GCFyLun1FpXgypZrBDJbgkQAkaX9rRS4RKiAKvzZsCkQOV9sEZo9ykIAvCgEvn6kAY8NwA4NOaX7G0bIFC4GWxjdOWDVWLR8XMT2Cvg7hs9Rp7SAIAc0rY/fmfyOJvN3vquj8CVF9TwKR+qE9yD+ZSOKo4PAlIBwPdHwCPtzhsMj76a+zu9WxtPBv9zaqXo+78p3Q4pCDCET6UDAE6sQvPtNHWTXkUxvWIbEWjPWEgETq4V3v2jqlWxUdneHSiTPjsAPikJjlDpiW1dYIWNaZ/sw0YE4OfHV4s/xog2gP5Ywo3zR2jA8wIA6rhBRZt3Fu2a82USGT0uAl8CPYgK7sj9AuVnI85W8uYNuKqwj9yKf14Aqn8Fu1YU3+YRDN49Hqy4svw3RPf9uB0jBXlkKLHWnWOpT0fdYzTgmQHgKnCJXpAZttrwCVh9/osrFvwYYTlmzxBHoP5aE/ILEgGtssax57KdFQBTxwNtMDuyfR1YGvPfYA18nW4cetSYd27clrGNI9nGvUdxCKCsianwtABQvV9kUEfX1V1pVBr3uJ2hs0nskSms2LF/jxp3hGtxLBdBEKy5rAEAszXePUeZxzR4yMkf45A3iHHxWrxpFDeO3pMj1BFuvtj2dowGTAUAWd6tlAYAcE+PM46krMDXF24bxq3DxhPlm5Z6vB5M0NKQgF1WBsxAf+MKbX8qKZJgy/immWOKhivGh46UTwsA00Il+N/bd2XNpAOGTW+35j2+4XmM0Nrm4a0Q2QMgSbUSbJkt1cKeC/q938Fdl38zY/c1v+sQkkLfkeqwXwz/T3y0ndcPuL2SQa+Hc0PkDL+iMuuxZGJMpHhID35k5H47rydowK5xruxupSAwQ+NkzkeY2lnEHm2wp8dQWmQk5ISStfMGQ9ItUSGVWzV0jLBioQqUvyqJVoBEi+AXnxXkvq70ExbBmcPhahejQfmtqqg+iaOaOu1r3YYCCRrxwtCGDdFe9ETt3JxgtU4ITAzLxHPOTOupR2IximG2Y3qU4ARRwK+/c5rGae3MlJiq3xEjIjtvDd2oGU+DruNzJONT1Bgyo35uaM3CKccLBIAi4m5AirZGP/73+xBuV8N02ashJSkNC3oE94K4cfmBRVyHE3o7NwCUpKr4pzsGDT/VV+LKtQN9AqHSCqxIKNV6GgTn3jsMCCw02sur2bbtZwfcrnHMmbf7OyVHUgY9qDfgXNL5oOHfW5q8w3OfH4D+4J1jbw6HAQQK5dVt6KqphABIlE/GOwrfeti1+9BdNyixmLTLc58ggfyMZXQdPERbDjIkbaRCTgMA9eC7q1fsq3HDPDoITg0AP8ZTDKM5GcKdKM4Irxu1nz9gw7BQcEQJt/BBwvdzz6eCLggAiZamqrBaFQ98vV2QLz87irUXdmkFIrBhyqBsbOYdkQxLGQA/zAUnCK5LkRR/2+PIO+0kbRq/NxvS6OEU8bJNlrYgt8eJryhI5zg9MlVUIsSKZd+XP5i7F/UmeeshvYHttnuvr89Ll+5ooGK7RJ2mdKKksnFZyJcHeZ2exmkom0saZK3Uaxo1Xa9Vpy8OaddR0ms7Uz9en9uwDtowHgudZAeAFiI6QRvOakwhsao1v2q4CvCqogS9pn68Pia5tZAvn7wDc418knYzt6TNVTVW4wav6nG/J7txKf37BTaVflovcvqZgATc04UvAMvOxhPGZNBgiDHHtXfREkCVTv52B6iGiH/4/VAU345glYDv+ikUeMIuGriyL5FxyeBYXbplBGktrJkQt30jgUpBOJqJfzmyDYK71voQPYJZojWQxQULlBwFU7iKvUiu29wzFA4AjwW1gv2yc4oK1GPVAYCFd9kA+OWOyJLYsVcJtl73kaY+H+LslkkAT4Bcy6Rx6QBAONdpRwrH9jco8nj/de8HOn3rd/d2mgwB6DeSmJasrthgrzaX49jLRG2s89sPgG9EdzrVPw0AfjgX37QYCZDfSQAoB+uTAECm8K3tHrhQ2L7edyh2RAeEu8QCC/6b1aXrAL8ghq0rB66U7q/3WgFMjhWIFY/UncDZ3Fw2upduBSTfc/GgFCDuVnFjX1wDVxb6foAZzq1jjZH2GfyADQLHXCsf4wm6Fcun3PzurDF6gsuL9wRpGIeLAfbHAtuK4eU6VFeMsQCwY9wN+AwAnN7AgnSW6EXdNBldrAjH6LFBz95uuji+v88IQLB12B6NGe7B4j+xOld0pOgk4T01nw4AFIG7ETFCTr8DByhaZrPfpmNEh/OEnNhnBIA7ETOHTg622zfPq9Xz1RALDIOLWy+ZEPl4Q9XoPf4RHKPcsu0WfoAb+xaNpETr5wPAd6Me25QTCM4RBjTai+QX9n1CAAgBr9PDnScUOMHw6zczygz9/QEgGRh0r0L19fWbyvTd3fVHtM8IgJ8GN9l00b8aOqVSaXh1350zM+AIk7RPCUBQC2Eyb9opFhfFztSDAoFTMk2fEwApCASVLX+6ewfVke3TAhDUn9AmO/Wk2Yf2iQGQogHViV18bgB+QssByAHIAcgByAHIAcgByAHIAcgByAHIAcgByAHIAcgByAHIAcgByAEItf8DmhO/LrALFFoAAAAASUVORK5CYII=;" vertex="1" parent="J0JZgje_QnxCTfkJuF6g-1">
          <mxGeometry x="1370" y="80" width="90.97" height="70" as="geometry" />
        </mxCell>
        <mxCell id="A4uDHD9m3wk5jE2XZlBi-0" value="&lt;h1 style=&quot;font-size: 27px&quot;&gt;&lt;font color=&quot;#000066&quot; style=&quot;font-size: 27px&quot;&gt;Cenários abrangidos:&lt;/font&gt;&lt;/h1&gt;&lt;h1 style=&quot;font-size: 27px&quot;&gt;&lt;font color=&quot;#1a1a1a&quot; style=&quot;font-size: 27px&quot;&gt;1 - API&amp;nbsp; exposta publicamente sem autenticação&lt;/font&gt;&lt;/h1&gt;&lt;h1 style=&quot;font-size: 27px&quot;&gt;&lt;font color=&quot;#1a1a1a&quot; style=&quot;font-size: 27px&quot;&gt;2 - API exposta publicamente com &lt;i style=&quot;font-size: 27px&quot;&gt;access token&lt;/i&gt;&lt;/font&gt;&lt;/h1&gt;&lt;h1 style=&quot;font-size: 27px&quot;&gt;&lt;font color=&quot;#1a1a1a&quot; style=&quot;font-size: 27px&quot;&gt;&lt;span style=&quot;font-size: 27px&quot;&gt;3 - API exposta publicamente com acesso usuário e senha&lt;/span&gt;&lt;/font&gt;&lt;/h1&gt;&lt;h1 style=&quot;font-size: 27px&quot;&gt;&lt;font color=&quot;#1a1a1a&quot; style=&quot;font-size: 27px&quot;&gt;&lt;span style=&quot;font-size: 27px&quot;&gt;4 - API exposta publicamente com troca de &lt;i&gt;token &lt;/i&gt;ou &lt;i&gt;token&lt;/i&gt; expirável&lt;/span&gt;&lt;/font&gt;&lt;/h1&gt;&lt;div&gt;&lt;font color=&quot;#1a1a1a&quot; style=&quot;font-size: 27px&quot;&gt;&lt;span style=&quot;font-size: 27px&quot;&gt;&lt;b&gt;5 - API privada (com os variados tipos de autenticação)&lt;/b&gt;&lt;/span&gt;&lt;/font&gt;&lt;/div&gt;" style="text;html=1;strokeColor=none;fillColor=none;spacing=5;spacingTop=-20;whiteSpace=wrap;overflow=hidden;rounded=0;labelBackgroundColor=none;labelBorderColor=none;fontSize=27;fontColor=#FF0000;" vertex="1" parent="J0JZgje_QnxCTfkJuF6g-1">
          <mxGeometry x="90" y="-310" width="1431" height="310" as="geometry" />
        </mxCell>
      </root>
    </mxGraphModel>
  </diagram>
</mxfile>
